<svg xmlns="http://www.w3.org/2000/svg" viewBox="0 0 500 500">
    <defs>
        <style>
            .cls-1{fill:#FFFFFF;stroke:FFFFFF;stroke-miterlimit:10;stroke-width:1.28px;}.cls-2{fill:#FFFFFF;stroke:FFFFFFfill-rule:evenodd;}</style>
    </defs>
    <g id="Layer_4" data-name="Layer 4">
        <path class="cls-1"
            d="M73.13,314.26c0-6.42,0-7.6-.09-8.95s-.46-2.11-2-2.41a11,11,0,0,0-1.8-.12c-.51,0-.79-.09-.79-.38s.33-.38,1-.38c2.44,0,5.35.12,6.64.12,1.44,0,4.34-.12,7.11-.12,5.77,0,13.48,0,18.51,4.81a14.41,14.41,0,0,1,4.48,10.72,16.08,16.08,0,0,1-5,11.78c-2.12,2-6.93,5-15.46,5-1.67,0-3.56-.13-5.31-.26s-3.37-.25-4.53-.25c-.5,0-1.52,0-2.63,0s-2.26.09-3.18.09c-.6,0-.93-.13-.93-.43s.19-.33.74-.33a8.39,8.39,0,0,0,1.66-.17c.93-.17,1.16-1.1,1.34-2.32.23-1.78.23-5.11.23-9Zm5.77,4.64c0,4.47,0,7.72.1,8.53,0,1.05.13,2.74.5,3.2.6.81,2.4,1.69,6,1.69,4.71,0,7.85-.84,10.62-3,3-2.32,3.87-6.16,3.87-10.51a13.73,13.73,0,0,0-4.43-10.55c-4.24-3.71-9.5-4.22-13.11-4.22a13.34,13.34,0,0,0-3,.3.76.76,0,0,0-.55.84c0,1.43,0,5.11,0,8.44Z" />
        <path class="cls-1"
            d="M115.42,317.17c0-5.45,0-6.46,0-7.6s-.46-1.6-1.75-1.94a8.5,8.5,0,0,0-1.62-.13,1,1,0,0,1-.69-.38,1.34,1.34,0,0,1,.93-.33c2.12,0,4.7.08,5.86.08s10.29,0,11.07,0,1.39-.17,1.71-.21a5.26,5.26,0,0,1,.65-.17c.23,0,.28.17.28.34a14.93,14.93,0,0,0-.33,2.32c0,.38-.14,1.94-.23,2.36,0,.17-.14.59-.46.59s-.32-.16-.32-.46a3.15,3.15,0,0,0-.28-1.31c-.32-.63-.65-1.14-2.68-1.31-.69-.08-5.54-.17-6.37-.17-.18,0-.27.13-.27.34v8.87c0,.21,0,.38.27.38.93,0,6.19,0,7.11-.09s1.57-.17,1.94-.55.46-.46.65-.46a.35.35,0,0,1,.32.38c0,.21-.09.8-.32,2.62-.1.71-.19,2.15-.19,2.4s0,.8-.41.8-.37-.12-.37-.29c-.05-.38-.05-.85-.14-1.31-.23-.72-.74-1.27-2.26-1.39-.74-.09-5.36-.17-6.37-.17-.19,0-.23.17-.23.38v2.87c0,1.22-.05,4.26,0,5.32.09,2.44,1.34,3,5.49,3a12,12,0,0,0,3.83-.46c1-.42,1.48-1.18,1.75-2.66.1-.38.19-.55.47-.55s.37.46.37.84a22.34,22.34,0,0,1-.56,4c-.28.93-.64.93-2.17.93-3,0-5.49,0-7.48-.13s-3.5-.08-4.7-.08c-.46,0-1.34,0-2.31,0s-2,.09-2.82.09c-.5,0-.78-.13-.78-.38s.14-.38.64-.38A6.87,6.87,0,0,0,114,333c.83-.17,1.06-.84,1.2-1.9.18-1.52.18-4.35.18-7.64Z" />
        <path class="cls-1"
            d="M144.5,330.51a13.06,13.06,0,0,1-.32-20.43c2.95-2.37,6.83-3.8,12.88-3.8a45.77,45.77,0,0,1,5.91.38c1.52.21,2.86.46,4.06.59.46,0,.6.21.6.42s-.09.72-.19,2-.09,3.16-.14,3.88c0,.51-.18.89-.55.89s-.42-.3-.42-.76a4.85,4.85,0,0,0-1.56-3.34c-1.39-1.22-4.11-2.11-7.85-2.11-3.56,0-5.82.59-7.66,2-3,2.36-3.74,5.82-3.74,9.33,0,8.52,7.2,12.57,12.65,12.57,3.6,0,5.58-.25,7.2-1.9a5.64,5.64,0,0,0,1.38-2.4c.09-.55.19-.72.51-.72s.46.34.46.63a28.62,28.62,0,0,1-.88,4.77c-.18.64-.37.81-1.06,1.06a26,26,0,0,1-7.34.8C152.9,334.39,148.19,333.34,144.5,330.51Z" />
        <path class="cls-1"
            d="M183.56,318.77h.18c1.38-1.35,7.29-6.67,8.49-7.89s2-2,2-2.66a.67.67,0,0,0-.55-.72c-.37-.08-.55-.17-.55-.38s.23-.33.64-.33c.88,0,3.1.08,4.2.08,1.25,0,3.51-.08,4.76-.08.41,0,.69.08.69.33s-.23.38-.6.38a8.21,8.21,0,0,0-2.35.43,12.44,12.44,0,0,0-4.3,2.65c-1.29,1.1-7.34,6.34-8.58,7.64,1.43,1.69,9.41,9.29,11,10.64,1.8,1.48,3.37,3,5.54,3.84a6.28,6.28,0,0,0,2.49.47c.33,0,.56.17.56.38s-.23.38-1,.38h-3.56a26.22,26.22,0,0,1-2.81-.09,8.81,8.81,0,0,1-5.26-2.32c-1.76-1.39-9.56-9.67-10.43-10.76l-.42-.51h-.18v3.25c0,3.29,0,6.12.09,7.68.09,1,.46,1.69,1.47,1.86a17.32,17.32,0,0,0,2,.13c.32,0,.55.21.55.38s-.32.38-.78.38c-2.26,0-5.17-.13-6.19-.13s-3.5.13-5.12.13c-.51,0-.79-.13-.79-.38s.14-.38.65-.38a6.77,6.77,0,0,0,1.43-.13c.83-.17,1.06-.84,1.2-1.9.19-1.52.19-4.35.19-7.64v-6.33c0-5.45,0-6.46-.05-7.6s-.46-1.6-1.75-1.94a8.58,8.58,0,0,0-1.62-.13c-.41,0-.69-.12-.69-.38s.32-.33.92-.33c2.13,0,4.71.08,5.68.08s3.88-.08,5.22-.08c.6,0,.87.08.87.33s-.23.38-.55.38a6.52,6.52,0,0,0-1.16.13c-1.1.17-1.43.68-1.52,1.94s0,2.15,0,7.6Z" />
        <path class="cls-1"
            d="M228.33,314.26c0-6.42,0-7.6-.09-8.95s-.46-2.11-2-2.41a11,11,0,0,0-1.8-.12c-.51,0-.79-.09-.79-.38s.32-.38,1-.38c2.44,0,5.35.12,6.27.12,2.27,0,4.07-.12,5.64-.12,8.35,0,9.83,4.09,9.83,6.33,0,3.46-2.17,5.53-4.71,7.38,3.78,1.19,8.4,4.18,8.4,9.12,0,4.52-3.83,9.2-12.33,9.2-.55,0-1.89-.08-3.23-.12s-2.76-.13-3.46-.13c-.51,0-1.52,0-2.63,0s-2.26.09-3.18.09c-.6,0-.93-.13-.93-.43s.19-.33.74-.33a8.48,8.48,0,0,0,1.66-.17c.93-.17,1.16-1.1,1.34-2.32.23-1.78.23-5.11.23-9Zm5.54.71c0,.34.14.43.33.47a12.5,12.5,0,0,0,2.16.13,5,5,0,0,0,3.33-.81,5.26,5.26,0,0,0,1.89-4.47c0-2.83-1.8-6.54-5.77-6.54a8.54,8.54,0,0,0-1.52.08c-.33.09-.42.25-.42.72Zm6.09,3.38a7,7,0,0,0-3.83-1c-.83,0-1.29,0-2,0-.19,0-.28.08-.28.29v10c0,2.78.14,3.5,1.62,4a9.05,9.05,0,0,0,3.37.5c2.07,0,5.58-1,5.58-5.4A9.75,9.75,0,0,0,240,318.35Z" />
        <path class="cls-1"
            d="M260.14,317.17c0-5.45.05-6.46-.05-7.6s-.46-1.6-1.75-1.94a8.31,8.31,0,0,0-1.57-.13c-.46,0-.69-.12-.69-.38s.27-.33.87-.33c2.17,0,4.9.08,6.1.08,1,0,3.74-.08,5.21-.08.6,0,.88.08.88.33s-.23.38-.65.38a6.55,6.55,0,0,0-1.2.13c-1.06.17-1.38.68-1.47,1.94s-.1,2.15-.1,7.6v5c0,5.24,1.11,7.26,3.1,8.7a8.33,8.33,0,0,0,5.12,1.43,8.16,8.16,0,0,0,5.45-1.9c2.26-1.94,2.35-5.06,2.35-8.73v-4.52c0-5.45-.05-6.46-.09-7.6s-.42-1.6-1.71-1.94a7.9,7.9,0,0,0-1.48-.13c-.46,0-.69-.12-.69-.38s.28-.33.83-.33c2.08,0,4.8.08,4.85.08.46,0,3.18-.08,4.75-.08.56,0,.83.08.83.33s-.23.38-.69.38a6.55,6.55,0,0,0-1.2.13c-1.11.17-1.38.68-1.47,1.94s-.1,2.15-.1,7.6V321c0,4-.46,8.23-3.88,10.81a13.48,13.48,0,0,1-8.58,2.57c-2.12,0-6.32-.08-9.28-2.45-2.08-1.64-3.69-4.3-3.69-9.49Z" />
        <path class="cls-1"
            d="M297.9,317.17c0-5.45,0-6.46,0-7.6s-.5-1.64-1.38-1.9a5.94,5.94,0,0,0-1.48-.17c-.41,0-.64-.08-.64-.42s.32-.29,1-.29c1.52,0,4.29.08,5.44.08s3.65-.08,5.22-.08c.51,0,.83.08.83.29s-.23.42-.65.42a6.55,6.55,0,0,0-1.2.13c-1.1.17-1.43.68-1.52,1.94s-.09,2.15-.09,7.6v6.33c0,3.46,0,6.33.18,7.85.14,1,.42,1.52,1.62,1.69a17.46,17.46,0,0,0,2.08.13c.46,0,.64.21.64.38s-.32.38-.78.38c-2.68,0-5.45-.13-6.56-.13-.92,0-3.69.13-5.31.13-.5,0-.78-.13-.78-.38s.14-.38.65-.38a6.77,6.77,0,0,0,1.43-.13c.83-.17,1.06-.68,1.2-1.73.18-1.48.18-4.35.18-7.81Z" />
        <path class="cls-1"
            d="M324,323.5c0,4.6,0,6.88.88,7.56.69.55,2.26.76,5.4.76,2.17,0,3.74-.05,4.75-1a4.07,4.07,0,0,0,1-2.15c.05-.34.14-.55.46-.55s.37.38.37.8a25.45,25.45,0,0,1-.6,4.14c-.28.8-.46,1-2.58,1-2.91,0-5.27,0-7.3-.13s-3.74-.08-5.4-.08c-.46,0-1.34,0-2.31,0s-2,.09-2.81.09c-.51,0-.79-.13-.79-.38s.14-.38.65-.38a6.77,6.77,0,0,0,1.43-.13c.83-.17,1.06-.84,1.2-1.9.19-1.52.19-4.35.19-7.64v-6.33c0-5.45,0-6.46-.05-7.6s-.46-1.6-1.75-1.94a6.26,6.26,0,0,0-1.34-.13c-.47,0-.7-.12-.7-.38s.28-.33.88-.33c1.89,0,4.48.08,5.59.08s4.29-.08,5.86-.08c.6,0,.87.08.87.33s-.23.38-.73.38a10.39,10.39,0,0,0-1.57.13c-1.11.17-1.43.68-1.53,1.94s-.09,2.15-.09,7.6Z" />
        <path class="cls-1"
            d="M345.86,317.17c0-5.45,0-6.46,0-7.6s-.46-1.6-1.76-1.94a8.39,8.39,0,0,0-1.61-.13c-.42,0-.69-.12-.69-.38s.32-.33.92-.33c2.12,0,4.71.08,5.86.08s4.16-.08,6.6-.08c5.08,0,11.91,0,16.34,4.09a12,12,0,0,1,3.83,9.12,13.35,13.35,0,0,1-4.43,10c-1.84,1.69-6.14,4.22-13.61,4.22-1.48,0-3.24-.12-4.85-.21s-3.09-.21-4.11-.21c-.46,0-1.34,0-2.31,0s-2,.09-2.81.09c-.51,0-.79-.13-.79-.38s.14-.38.65-.38a6.77,6.77,0,0,0,1.43-.13c.83-.17,1.06-.84,1.2-1.9.18-1.52.18-4.35.18-7.64Zm5.45,4c0,3.8.05,6.54.09,7.26a6.17,6.17,0,0,0,.46,2.53c.51.68,2.13,1.43,5.31,1.43,3.69,0,6.42-.59,8.86-2.44,2.64-2,3.47-5.2,3.47-8.91,0-4.56-2-7.51-3.79-8.95-3.74-3-8.17-3.42-11.35-3.42a9.38,9.38,0,0,0-2.5.26.63.63,0,0,0-.5.71c-.05,1.23-.05,4.18-.05,7Z" />
        <path class="cls-1"
            d="M385.61,317.17c0-5.45,0-6.46-.05-7.6s-.46-1.6-1.75-1.94a8.5,8.5,0,0,0-1.62-.13c-.41,0-.69-.12-.69-.38s.33-.33.93-.33c2.12,0,4.7.08,5.86.08s10.29,0,11.08,0,1.38-.17,1.7-.21a5.26,5.26,0,0,1,.65-.17c.23,0,.28.17.28.34a14.93,14.93,0,0,0-.33,2.32c0,.38-.14,1.94-.23,2.36,0,.17-.14.59-.46.59s-.32-.16-.32-.46a3.15,3.15,0,0,0-.28-1.31c-.32-.63-.65-1.14-2.68-1.31-.69-.08-5.54-.17-6.37-.17-.18,0-.27.13-.27.34v8.87c0,.21,0,.38.27.38.93,0,6.19,0,7.11-.09s1.57-.17,1.94-.55.46-.46.65-.46a.35.35,0,0,1,.32.38c0,.21-.09.8-.32,2.62-.1.71-.19,2.15-.19,2.4s0,.8-.41.8-.37-.12-.37-.29c-.05-.38-.05-.85-.14-1.31-.23-.72-.74-1.27-2.26-1.39-.74-.09-5.36-.17-6.37-.17-.19,0-.23.17-.23.38v2.87c0,1.22-.05,4.26,0,5.32.09,2.44,1.34,3,5.49,3a12,12,0,0,0,3.83-.46c1-.42,1.48-1.18,1.75-2.66.1-.38.19-.55.47-.55s.37.46.37.84a22.34,22.34,0,0,1-.56,4c-.28.93-.64.93-2.17.93-3,0-5.49,0-7.47-.13s-3.51-.08-4.71-.08c-.46,0-1.34,0-2.31,0s-2,.09-2.82.09c-.5,0-.78-.13-.78-.38s.14-.38.64-.38a6.87,6.87,0,0,0,1.44-.13c.83-.17,1.06-.84,1.2-1.9.18-1.52.18-4.35.18-7.64Z" />
        <path class="cls-1"
            d="M413.12,317.17c0-5.45,0-6.46,0-7.6s-.46-1.6-1.76-1.94a8.39,8.39,0,0,0-1.61-.13c-.42,0-.7-.12-.7-.38s.33-.33.93-.33c2.12,0,4.71.08,5.54.08,1.38,0,5.08-.08,6.32-.08,2.59,0,5.54.21,7.71,1.52a6.15,6.15,0,0,1,2.86,4.93c0,2.66-1.66,5-5.63,7.94,3.6,4.05,6.46,7.3,8.91,9.54,2.26,2.07,3.69,2.24,4.34,2.36a3.85,3.85,0,0,0,1,.09.45.45,0,0,1,.5.38c0,.29-.27.38-.78.38H436.8a9.46,9.46,0,0,1-4.43-.72c-1.75-.8-3.28-2.49-5.54-5.28-1.61-1.94-3.32-4.34-3.83-4.89a1,1,0,0,0-.74-.26l-3.64-.08c-.19,0-.33.08-.33.29v.51c0,3.34,0,6.12.23,7.64.14,1.06.33,1.73,1.57,1.9a17.91,17.91,0,0,0,2,.13.46.46,0,0,1,.51.38c0,.25-.33.38-.84.38-2.35,0-5.72-.13-6.32-.13-.78,0-3.37.13-5,.13-.51,0-.79-.13-.79-.38s.14-.38.65-.38a6.77,6.77,0,0,0,1.43-.13c.83-.17,1.06-.84,1.2-1.9.18-1.52.18-4.35.18-7.64Zm5.17,2.79a.56.56,0,0,0,.37.63,12.3,12.3,0,0,0,3.09.34,4.44,4.44,0,0,0,2.87-.59,5.94,5.94,0,0,0,2.63-5.32c0-5.07-3.79-6.38-6.19-6.38a16.67,16.67,0,0,0-2.4.13.45.45,0,0,0-.37.51Z" />
        <path class="cls-2"
            d="M175.38,292a2.84,2.84,0,0,0,1-1,27.87,27.87,0,0,1,3.84-3.92l.24.24c.91-1.1,1.86-2.17,2.85-3.19a17,17,0,0,0,3-6.63,16.56,16.56,0,0,0,0-5.53c-.24-1.11-.52-2.21-.87-3.31Q174.66,242,163.25,216.08a1.74,1.74,0,0,0-1,.24,322.16,322.16,0,0,0-41.11,77.35c-8.15-14.22-16.32-29.88-24.15-47q-7.27-15.9-13.06-30.86c-11.24,11.54-34.45,38.75-40.6,79.52a137.13,137.13,0,0,0-.24,39.07c-11.35-17.55-13.59-32-13.74-41.36-.65-39.75,34.49-89,35.65-92.08a12.56,12.56,0,0,1,1.19-2.4c.17-.27.35-.54.54-.79l-.24-.25,1.23-1.72-.24-.24a36.92,36.92,0,0,0,3-7.62c0-.39.22-2.13.24-2.7a2.64,2.64,0,0,0-.49-1.47,1.73,1.73,0,0,0-.5-2l.25-.24A25.12,25.12,0,0,0,66.13,177l-.25.24-2.23-2h-.74l-1.73-1.48c-.25.28-.42.2-.5-.24-.25.28-.41.19-.49-.25l-.25.25a17.12,17.12,0,0,1-9.24-7.78h58.14c6,16.66,12.92,33.61,20.76,50.75q1.41,3.09,2.85,6.15c.12-.27.34-.27.49,0a52.06,52.06,0,0,1,3.46-5.88c9.56-19.26,15-34.13,14-37.21a12,12,0,0,0-1.43-2.86,11.55,11.55,0,0,0-4-3.4c-2-1.08-4.75-3.15-8.31-7.53h66.44c.13.6-3.73,6.73-5.29,8a16.31,16.31,0,0,0-3,4.18c-.22,1.09-.43,2.11-.62,3.07q.72,3,1.61,6,14.31,34.92,28.82,68.64a156.07,156.07,0,0,0,9.53,18.78q6.25,8.48,12.25,17.56-20.76.5-42.56.37Q189.38,292.35,175.38,292Z" />
        <path class="cls-2"
            d="M454.19,212.93c.4-2.06,2.71-14.86-5.27-23.05-3.79-3.89-8-4.83-14.84-6.34-3.64-.81-25.68-5.34-39,7.08l-.48.46a30.37,30.37,0,0,0-3.63,4.25,51.92,51.92,0,0,0-3,5.13,40.43,40.43,0,0,0-4.06,10.7,92,92,0,0,0-1.72,15.74l-.37.36a12.35,12.35,0,0,1,0,4.92,36.15,36.15,0,0,1,.74,6,7.82,7.82,0,0,1-.25,2.33l.37.37a66.2,66.2,0,0,0,1.6,9.1,1,1,0,0,0,.49.62,1.65,1.65,0,0,0,0,1.47,84.89,84.89,0,0,0,4.18,10.21,70.36,70.36,0,0,0,7.26,8.85l.24-.25a24.24,24.24,0,0,0,16.11,6.28l.37.36c1.22-.27,2.61-.51,4.18-.73l.74.24a12.4,12.4,0,0,1,2.09-.86,9,9,0,0,0,5.65-2.58q.45-15.89.08-31.78a8.46,8.46,0,0,0-1.38-3.5,15.92,15.92,0,0,0-5.53-5.66,20.1,20.1,0,0,0-8-3.08l59.63-.49c-.05,10.47-.09,25.56,0,43.77.18,33.64.73,61.51-.14,61.54-.17,0-.23-1-.67-3.12-1.54-7.26-4.58-12.37-7.29-16.86a56.48,56.48,0,0,0-9-12c-2.43-2.39-8.18-8.08-16.4-10.65-8.38-2.63-9.57,1-28.37,1.3-12.12.17-19.11-1.25-22.25-2a79.47,79.47,0,0,1-12.44-4c-6.18-2.56-18.09-7.5-27.9-19.33a62.34,62.34,0,0,1-13.52-31.39V223.08c.62-2.51,1.2-5.05,1.72-7.62l-.24-.25a2.88,2.88,0,0,0,.74-1.84,61.53,61.53,0,0,1,11.18-20.66,43.53,43.53,0,0,0,4.55-5.16q3.45-2.78,6.77-5.66l.24.25a19.12,19.12,0,0,1,2.71-2.46,4.43,4.43,0,0,0,1.47-1c.08.08,3.86-2,3.94-2.46l.24.24a79.78,79.78,0,0,1,8.79-4,94.31,94.31,0,0,1,15.08-4.22c9.09-1.69,39.48-3.23,80.73-2.39a189.24,189.24,0,0,1-6.39,23.76A192,192,0,0,1,454.19,212.93Z" />
        <path class="cls-2"
            d="M264.24,287.74a22.51,22.51,0,0,0,3.93-8.42l-.17-.16a3.76,3.76,0,0,0,.49-1.47,2.29,2.29,0,0,1-.16-.82,3.93,3.93,0,0,0,.49-1.47,14.74,14.74,0,0,1-.16-1.63.83.83,0,0,0,0-1.31q0-18.12.16-36.28c-.06-2.7-.22-5.36-.49-8a12.85,12.85,0,0,1,.16-2.12,38.44,38.44,0,0,0-1.3-5.72l.16-.49c-.27-.49-.54-1-.82-1.47a19.75,19.75,0,0,0-6-8.5,1.47,1.47,0,0,0,.4-.24h41.84a1.64,1.64,0,0,1,.32,1.79,7,7,0,0,1-1.47,1.31,2.36,2.36,0,0,1-.49.82c0-.06-.11-.11-.16-.16a21.85,21.85,0,0,0-5.23,12.09q-.24,5.19-.41,10.37.22,19,.08,37.67a50.6,50.6,0,0,0,.66,6.05,20.15,20.15,0,0,0,8.74,13q-22.71.17-45.43,0a1.25,1.25,0,0,1,1-.74A36.78,36.78,0,0,0,264.24,287.74Z" />
        <path class="cls-2"
            d="M323.57,207.6c0,2.66,0,5.33,0,8s0,5.5,0,8.24a4,4,0,0,1-1.8.13,7.41,7.41,0,0,1-1.31-.56,4.52,4.52,0,0,1-.82-.18l.17-.07a45,45,0,0,0-12.1-1.95c-3.47-.05-6.93-.1-10.38-.13q-19,.15-37.67.16c-2,0-4,.13-6,.27q-8.13.66-13,3.38c0-1.69-.07-3.37-.09-5.07,0-4,0-8,0-12l41.6-.12Z" />
    </g>
</svg>