<svg id="Layer_1" data-name="Layer 1" xmlns="http://www.w3.org/2000/svg" viewBox="0 0 100 100"><defs><style>.cls-1{fill:#cac5c0;}.cls-2{fill:#0d0f0f;}</style></defs><circle class="cls-1" cx="50" cy="50" r="50"/><path class="cls-2" d="M32.38,18.63V69.07q0,9,7.7,9h1.3v3.42H14.51V78.07h1.73q7.4,0,7.4-9V36q0-9.12-6.47-9.12H14.51V23.44h1a22.85,22.85,0,0,0,14.19-4.81ZM42.14,52a47.82,47.82,0,0,1,4.94-21.67Q53.29,18,64.06,18q10.41,0,16.48,10.52a39.22,39.22,0,0,1,4.95,19.89A47,47,0,0,1,80.54,70Q74.33,82,63.69,82,53.43,82,47.34,71.6A37.62,37.62,0,0,1,42.14,52Zm9.12-3.68a68.91,68.91,0,0,0,2.16,18q3.3,12.3,10.77,12.3,12.16,0,12.17-25.35,0-31.3-13.19-31.3-11.91,0-11.91,24.33v2Z"/></svg>