<svg id="Layer_1" data-name="Layer 1" xmlns="http://www.w3.org/2000/svg" viewBox="0 0 100 100"><defs><style>.cls-1{fill:#cac5c0;}.cls-2{fill:#0d0f0f;}</style></defs><circle class="cls-1" cx="50" cy="50" r="50"/><path class="cls-2" d="M38.5,18.32V69.16q0,9.07,7.54,9.07h1.28v3.45H20.23V78.23H22q7.66,0,7.67-9.07V35.82q0-9.19-6.52-9.19H20.49V23.18h1a23.06,23.06,0,0,0,14.31-4.86Zm32.45,0V69.16q0,9.07,7.54,9.07h1.28v3.45H52.68V78.23h1.79q7.66,0,7.66-9.07V35.82q0-9.19-6.51-9.19H52.94V23.18h1a23.06,23.06,0,0,0,14.31-4.86Z"/></svg>