<svg id="Layer_1" data-name="Layer 1" xmlns="http://www.w3.org/2000/svg" viewBox="0 0 100 100"><defs><style>.cls-1{fill:#cac5c0;}.cls-2{fill:#0d0f0f;}</style></defs><circle class="cls-1" cx="50" cy="50" r="50"/><path class="cls-2" d="M33.33,19.21V68.39q0,8.82,7.28,8.82h1.28v3.45H15.7V77.21h1.54q7.4,0,7.4-8.82V36.07q0-8.92-6.13-8.93H15.83V23.81h1a22.46,22.46,0,0,0,13.8-4.59Zm51,46.37L79.83,80.79H42.4V77.47Q45.08,74.4,54.28,65.2q5.49-5.49,11-11.75,2.69-3.08,4.21-5.11a17.55,17.55,0,0,0,3.19-9.71,13.42,13.42,0,0,0-2.93-8.56,9.46,9.46,0,0,0-7.8-3.7q-10.09,0-15.84,13.8l-3.32-1.28q6.9-19.17,21.46-19.17A17.14,17.14,0,0,1,76.5,24.58a16,16,0,0,1,5.11,12.14Q81.61,46,71,54.86l-7.28,5.87A106.36,106.36,0,0,0,52.1,71.84c-.25.26-.68.73-1.27,1.41H70.38c3,0,5.19-.56,6.64-1.66s2.76-3.11,4-6Z"/></svg>