<svg id="Layer_1" data-name="Layer 1" xmlns="http://www.w3.org/2000/svg" viewBox="0 0 100 100"><defs><style>.cls-1{fill:#cac5c0;}.cls-2{fill:#0d0f0f;}</style></defs><circle class="cls-1" cx="50" cy="50" r="50"/><path class="cls-2" d="M34,19.79V68.33q0,8.57,7.28,8.56H42.4v3.32H16.6V76.89h1.66q7.41,0,7.41-8.56V36.52q0-8.81-6.26-8.81H16.85V24.39h1a21.68,21.68,0,0,0,13.54-4.6ZM55.68,52l-1.53-2.81,1.15-.64Q61.06,45,66,41.31c3.27-2.42,4.92-5.17,4.92-8.24a6.74,6.74,0,0,0-2.43-5.3,8,8,0,0,0-5.36-2.11q-7.43,0-15.59,9L45,32.69q8.41-12.78,20.69-12.78a15.06,15.06,0,0,1,9.07,2.69,9.23,9.23,0,0,1,4.34,8,10.56,10.56,0,0,1-3.06,7,54.23,54.23,0,0,1-6.14,5.24l-1.15,1a12.57,12.57,0,0,1,1.92-.13,11.46,11.46,0,0,1,9.2,4.28,14.82,14.82,0,0,1,3.57,9.77q0,9.72-8.17,16.1A26.28,26.28,0,0,1,58,80.08q-9.08,0-14.18-3.83l1.78-2.56a26.33,26.33,0,0,0,11,2.82,19.29,19.29,0,0,0,12.77-4.73A14.75,14.75,0,0,0,75,60a12,12,0,0,0-2.81-8,9.2,9.2,0,0,0-7.41-3.32Q60.67,48.66,55.68,52Z"/></svg>