<svg id="Layer_1" data-name="Layer 1" xmlns="http://www.w3.org/2000/svg" viewBox="0 0 100 100"><defs><style>.cls-1{fill:#cac5c0;}.cls-2{fill:#0d0f0f;}</style></defs><circle class="cls-1" cx="50" cy="50" r="50"/><path class="cls-2" d="M32.7,19.47V68.52q0,8.69,7.27,8.69h1.16v3.32H15.06V77.21h1.67q7.4,0,7.4-8.69V36.33q0-8.82-6.26-8.81H15.32V24.2h1A21.87,21.87,0,0,0,30,19.47Zm43,43.69v5.11q0,8.55,6,8.56H83.4v3.31H59V76.83h1.92c4,0,6-2.82,6-8.43V63.16H42.4V58.05L68.33,20.23h7.41V58.81h.64c2.47,0,4.3-2,5.49-5.87h3.07L83.4,63.16ZM69,58.05V25.86L47.25,58.05Z"/></svg>