<svg id="Layer_1" data-name="Layer 1" xmlns="http://www.w3.org/2000/svg" viewBox="0 0 100 100"><defs><style>.cls-1{fill:#cac5c0;}.cls-2{fill:#0d0f0f;}</style></defs><path class="cls-1" d="M100,50A50,50,0,1,1,50,0,50,50,0,0,1,100,50Z"/><path class="cls-2" d="M34.28,18.13V69q0,9.06,7.54,9.07H43.1v3.44H16V78h1.79q7.67,0,7.66-9.07V35.62q0-9.18-6.52-9.19H16.27V23h1a23.08,23.08,0,0,0,14.3-4.85ZM52.17,19.4H75.29c3,0,4.77-.33,5.37-1H84l-1.92,8.69H53.83L51.15,39.59a29.05,29.05,0,0,1,10.73-2.43A21.47,21.47,0,0,1,77.4,43.29a20.46,20.46,0,0,1,6.32,15.33,21,21,0,0,1-8.17,17.25,29.15,29.15,0,0,1-18.52,6A41.67,41.67,0,0,1,44.51,80l1.27-3.19a34.56,34.56,0,0,0,9.07,1.4,20.3,20.3,0,0,0,13.86-5.23,16.67,16.67,0,0,0,5.94-13A15,15,0,0,0,59.2,44.44a18.1,18.1,0,0,0-11.63,4.35L45.4,48.4Z"/></svg>