<svg id="Layer_1" data-name="Layer 1" xmlns="http://www.w3.org/2000/svg" viewBox="0 0 100 100"><defs><style>.cls-1{fill:#cac5c0;}.cls-2{fill:#0d0f0f;}</style></defs><circle class="cls-1" cx="50" cy="50" r="50"/><path class="cls-2" d="M33.65,18.32V69.16q0,9.07,7.54,9.07h1.27v3.45H15.38V78.23h1.79q7.66,0,7.67-9.07V35.82q0-9.19-6.52-9.2H15.64V23.17h1A23,23,0,0,0,31,18.32ZM53.71,45.78q7-6.63,14.18-6.64a14.93,14.93,0,0,1,12.39,6.13,21.74,21.74,0,0,1,4.34,13.67,24,24,0,0,1-5.11,15.2q-5.62,7.29-14.05,7.28-10,0-16.1-8.68A30.88,30.88,0,0,1,44,54.6,37,37,0,0,1,50.13,34,33.58,33.58,0,0,1,66.61,20.62a34.35,34.35,0,0,1,12.26-2.18v3.33q-13.78.63-20.56,11A32.58,32.58,0,0,0,53.71,45.78Zm-.64,6.27c-.09,1.27-.13,2.55-.13,3.83A35.77,35.77,0,0,0,55.5,69.55q3.31,8.16,9.7,8.17,5.49,0,8.3-5.62a24.7,24.7,0,0,0,2-10.61,30,30,0,0,0-1.91-11.23q-2.82-6.39-8.57-6.39Q58.05,43.87,53.07,52.05Z"/></svg>