<svg id="Layer_1" data-name="Layer 1" xmlns="http://www.w3.org/2000/svg" viewBox="0 0 100 100"><defs><style>.cls-1{fill:#cac5c0;}.cls-2{fill:#0d0f0f;}</style></defs><circle class="cls-1" cx="50" cy="50" r="50"/><path class="cls-2" d="M33.71,19.15V68.46q0,8.82,7.29,8.81h1.14v3.32H16V77.27h1.79c4.93,0,7.41-2.93,7.41-8.81V36.14q0-8.94-6.39-8.94H16.21V23.88h1A22,22,0,0,0,31,19.15ZM66.42,81h-9V80q0-8.56,5.37-21.59Q71,38.95,77.91,28.48l.52-.9h-21q-4.59,0-7,1.92c-1.57,1.27-2.79,3.41-3.64,6.38H43.42L47.25,19h2.31q1.9.9,6.89.9H84v4.85a54.59,54.59,0,0,0-3.83,6.9A133.32,133.32,0,0,0,72,51.85Q66.54,69,66.42,81Z"/></svg>