<svg id="Layer_1" data-name="Layer 1" xmlns="http://www.w3.org/2000/svg" viewBox="0 0 100 100"><defs><style>.cls-1{fill:#cac5c0;}.cls-2{fill:#0d0f0f;}</style></defs><circle class="cls-1" cx="50" cy="50" r="50"/><path class="cls-2" d="M34,19.22V68.65q0,8.82,7.28,8.82h1.28v3.32H16.28V77.47h1.66q7.53,0,7.54-8.82V36.21c0-6-2.14-8.94-6.39-8.94H16.53V24h1a22,22,0,0,0,13.8-4.73Zm22.61,30.4-1.28-1q-6-4.1-7.91-6.52a12.38,12.38,0,0,1-2.3-7.41,13.73,13.73,0,0,1,6-11.49A20.05,20.05,0,0,1,63.92,19a21.58,21.58,0,0,1,12.27,3.58,12.63,12.63,0,0,1,5.88,10.85q0,8.19-11.25,13.16,12.92,6.27,12.9,17.5a15.16,15.16,0,0,1-6.26,12.78Q72.11,81,63.79,81a22.91,22.91,0,0,1-13.54-4q-6.51-4.47-6.51-11.88t7-12.26A47.56,47.56,0,0,1,56.64,49.62ZM60.22,51q-9.33,4.34-9.33,13.54a12.53,12.53,0,0,0,3.83,9.51,13.37,13.37,0,0,0,9.59,3.64,14.32,14.32,0,0,0,9.07-2.87,9.54,9.54,0,0,0,3.7-8q0-7.78-10-12.51Zm7-6.14q8.31-3.7,8.31-11a10.19,10.19,0,0,0-3.51-8,12.69,12.69,0,0,0-8.63-3.06,12.41,12.41,0,0,0-7.53,2.42,7.78,7.78,0,0,0-3.32,6.64A9.34,9.34,0,0,0,57.28,40q1,.63,8.43,4.09Z"/></svg>