<svg id="Layer_1" data-name="Layer 1" xmlns="http://www.w3.org/2000/svg" viewBox="0 0 100 100"><defs><style>.cls-1{fill:#cac5c0;}.cls-2{fill:#0d0f0f;}</style></defs><circle class="cls-1" cx="50" cy="50" r="50"/><path class="cls-2" d="M33.78,18.57V68.78q0,8.94,7.53,8.94h1.28v3.45H15.77V77.72h1.78q7.54,0,7.54-8.94v-33q0-9.06-6.39-9.07H16V23.3h1a23.27,23.27,0,0,0,14.18-4.72ZM74.53,54.35Q67.5,61,60.48,61a14.84,14.84,0,0,1-12.4-6.26,21.36,21.36,0,0,1-4.21-13.41,25.21,25.21,0,0,1,5-15.33q5.61-7.29,13.92-7.28,10.09,0,16,8.68a30.93,30.93,0,0,1,5.49,18.27q0,15.08-9.9,25.36T49.49,81.43V78.1a34.68,34.68,0,0,0,7.28-1Q72,72.48,74.53,54.35Zm.64-6.27c.08-1.35.13-2.63.13-3.83a34.93,34.93,0,0,0-2.56-13.54q-3.45-8-9.71-8-5.49,0-8.05,5.5a23.68,23.68,0,0,0-2.17,10.47,28.21,28.21,0,0,0,2,11.24q2.68,6.26,8.43,6.26Q70.18,56.13,75.17,48.08Z"/></svg>