<svg id="Layer_1" data-name="Layer 1" xmlns="http://www.w3.org/2000/svg" viewBox="0 0 100 100"><defs><style>.cls-1{fill:#cac5c0;}.cls-2{fill:#0d0f0f;}</style></defs><circle class="cls-1" cx="50" cy="50" r="50"/><path class="cls-2" d="M77.44,70.1,71.55,90h-49V85.75q3.57-4,15.64-16.06,7.27-7.27,14.41-15.37a63.24,63.24,0,0,0,5.49-6.86,22,22,0,0,0,4.25-12.62,17.08,17.08,0,0,0-3.91-11.12,12.41,12.41,0,0,0-10.09-4.8q-13.31,0-20.85,18l-4.4-1.65Q32,10,51.24,10a22.32,22.32,0,0,1,16.12,6.45A21.27,21.27,0,0,1,74,32.37Q74,44.45,60.16,56l-9.61,8A148.17,148.17,0,0,0,35.32,78.34c-.28.27-.82.91-1.64,1.92H59.2q5.89,0,8.91-2.34,2.61-2.06,5.08-7.82Z"/></svg>