<svg id="Layer_1" data-name="Layer 1" xmlns="http://www.w3.org/2000/svg" viewBox="0 0 100 100"><defs><style>.cls-1{fill:#cac5c0;}.cls-2{fill:#0d0f0f;}</style></defs><circle class="cls-1" cx="50" cy="50" r="50"/><path class="cls-2" d="M50.32,65.27,45.85,80.21H9.06V77.14Q11.75,74.08,20.94,65q5.37-5.49,10.73-11.5a32.53,32.53,0,0,0,4.09-5.24,16.13,16.13,0,0,0,3.32-9.57,12.59,12.59,0,0,0-3-8.24,9.43,9.43,0,0,0-7.6-3.64q-10,0-15.59,13.54L9.44,39.08q6.78-19,21.21-19a17,17,0,0,1,12.2,4.85,16,16,0,0,1,5,12q0,9.08-10.6,17.75l-7.15,6A119.73,119.73,0,0,0,18.77,71.53a7,7,0,0,0-1.28,1.53H36.65q4.47,0,6.77-1.92,1.92-1.53,3.83-5.87Zm-.51-13.42a46.29,46.29,0,0,1,4.6-20.56q6-11.74,16.22-11.75,9.84,0,15.72,10.09a38,38,0,0,1,4.59,18.9A45.14,45.14,0,0,1,86.35,69q-6,11.49-16.1,11.49-9.7,0-15.58-9.83A36.48,36.48,0,0,1,49.81,51.85ZM58.5,48.4a65.62,65.62,0,0,0,2,17.12Q63.6,77.28,70.76,77.27q11.63,0,11.63-24.14,0-29.89-12.65-29.89-11.25,0-11.24,23.25V48.4Z"/></svg>