<svg id="Layer_1" data-name="Layer 1" xmlns="http://www.w3.org/2000/svg" viewBox="0 0 100 100"><defs><style>.cls-1{fill:#bab1ab;}.cls-2{fill:#cac5c0;}.cls-3{fill:#0d0f0f;}</style></defs><path class="cls-1" d="M85.35,14.64a50,50,0,1,1-70.7,70.71"/><path class="cls-2" d="M14.65,85.35a50,50,0,0,1,70.7-70.71"/><path class="cls-3" d="M43.65,41.59l-2.87,9.68H17V49.2q1.74-1.94,7.61-7.81c2.35-2.35,4.69-4.85,7-7.47a29.68,29.68,0,0,0,2.67-3.34,10.68,10.68,0,0,0,2.07-6.14,8.36,8.36,0,0,0-1.9-5.4A6,6,0,0,0,29.5,16.7q-6.46,0-10.14,8.75l-2.14-.81Q21.57,12.37,30.9,12.37a10.85,10.85,0,0,1,7.84,3.13A10.36,10.36,0,0,1,42,23.24q0,5.88-6.74,11.48l-4.67,3.87a72.48,72.48,0,0,0-7.4,7c-.14.14-.41.45-.81.94H34.77a7,7,0,0,0,4.34-1.13,9.88,9.88,0,0,0,2.47-3.81Z"/><path class="cls-3" d="M89.62,66q0,4-3,5.52a27.9,27.9,0,0,1-5.4,1.17c-2,.33-3,1.09-3,2.27v5c0,.21.07.85.19,1.91l.18,2a16.69,16.69,0,0,1-.43,3l-2.7.56a11.85,11.85,0,0,1-.49-2.52,4.33,4.33,0,0,1,.15-.92,4.51,4.51,0,0,0,.16-.92,10.84,10.84,0,0,0-.77-2.4h-1a1.2,1.2,0,0,0-.13.8,5.71,5.71,0,0,1,.19,1.78c-.7.49-1.66,1.15-2.89,2q-.43-.12-.3-.12V80.66c-.09-.2-.29-.28-.62-.24h-.74l-.73,5.77a18.08,18.08,0,0,1-2.09,0q-.43-2-1.53-6h-.5l-.73,2.33a5.81,5.81,0,0,0,.15,1,6,6,0,0,1,.16,1c0,.12,0,.43-.13.92l-.18,1.47a.45.45,0,0,1-.31.12A2.75,2.75,0,0,1,60.82,86a4.06,4.06,0,0,1-.49-2.58l.49-7.36a1.27,1.27,0,0,1,.13-.49,1.49,1.49,0,0,0,.12-.43,5,5,0,0,0-1-2c-.13,0-.76-.18-1.91-.43-.69-.16-2.07-.45-4.11-.86q-4.24-.8-4.24-6.81a18.43,18.43,0,0,1,7.37-14.92c.2,1.1.55,2.58,1,4.42l2.4.55,3.74,1.35a37.42,37.42,0,0,1-4.48-3.37,6.41,6.41,0,0,1-1-4.11c0-.46.77-1,2.33-1.6a13,13,0,0,1,3.13-1,42,42,0,0,1,5.1-.43q7.67,0,12.4,3.93a18.92,18.92,0,0,1-5.28,3.8,10.84,10.84,0,0,0,4.3-1.16c1.88-.82,2.68-1.23,2.39-1.23.33,0,1,.65,2,2a29.29,29.29,0,0,1,1.78,2.64,23.17,23.17,0,0,1,2.64,7.55c0,1,0,1.62.06,2V66ZM66.1,67.1a7.12,7.12,0,0,0-2.3-5,6.85,6.85,0,0,0-4.94-2.36,5.37,5.37,0,0,0-4.11,2A6.4,6.4,0,0,0,53,66.1a2.6,2.6,0,0,0,2,2.72,15.58,15.58,0,0,0,3.62.43H62C64.73,69.28,66.1,68.57,66.1,67.1Zm6.7,7.61v-1.9c-.29-.53-.58-1.09-.86-1.66a33.88,33.88,0,0,0-1.35-3.44l-.68,7.18c0,.58-.12.86-.37.86a.53.53,0,0,1-.37-.12q-.42-6.51-.42-5.64V67.84a.37.37,0,0,0-.31-.19q-2.09,2.16-2.09,6.94c0,1.76.17,2.84.49,3.25A5.1,5.1,0,0,0,68,77.41a4.55,4.55,0,0,1,1.41-.12,7.2,7.2,0,0,1,2.82.74C72.59,78,72.8,76.92,72.8,74.71Zm13.87-8.56a6.23,6.23,0,0,0-1.84-4.41,5.68,5.68,0,0,0-4.23-2,6.61,6.61,0,0,0-4.82,2.36,7.16,7.16,0,0,0-2.25,4.95,1.87,1.87,0,0,0,2.09,2.14h7.06C85.34,69.2,86.67,68.18,86.67,66.15Z"/></svg>