<svg id="Layer_1" data-name="Layer 1" xmlns="http://www.w3.org/2000/svg" viewBox="0 0 100 100"><defs><style>.cls-1{fill:#a3c095;}.cls-2{fill:#cac5c0;}.cls-3{fill:#0d0f0f;}</style></defs><path class="cls-1" d="M85.35,14.64a50,50,0,1,1-70.7,70.71"/><path class="cls-2" d="M14.65,85.35a50,50,0,0,1,70.7-70.71"/><path class="cls-3" d="M43.65,41.59l-2.87,9.68H17V49.2q1.74-1.94,7.61-7.81c2.35-2.35,4.69-4.85,7-7.47a29.68,29.68,0,0,0,2.67-3.34,10.68,10.68,0,0,0,2.07-6.14,8.36,8.36,0,0,0-1.9-5.4A6,6,0,0,0,29.5,16.7q-6.46,0-10.14,8.75l-2.14-.81Q21.57,12.37,30.9,12.37a10.85,10.85,0,0,1,7.84,3.13A10.36,10.36,0,0,1,42,23.24q0,5.88-6.74,11.48l-4.67,3.87a72.48,72.48,0,0,0-7.4,7c-.14.14-.41.45-.81.94H34.77a7,7,0,0,0,4.34-1.13,9.88,9.88,0,0,0,2.47-3.81Z"/><path class="cls-3" d="M89.52,67.62a2.85,2.85,0,0,1-.88,2,2.77,2.77,0,0,1-2,.91A2.81,2.81,0,0,1,84,68.86l-2.67-.11a15.19,15.19,0,0,0-3.34.74,8.59,8.59,0,0,0-3.06,1.19,6.84,6.84,0,0,0-1,3.18,21,21,0,0,0-.33,3A4.07,4.07,0,0,0,74,79.1a3.65,3.65,0,0,0,2,1.19c1,.32,1.62.5,1.84.54a7,7,0,0,0,.74-.06h.68a5.75,5.75,0,0,1,1.54.23c.75.23,1.07.53,1,.91a8.89,8.89,0,0,0-2.78.34l1.59.79c0,.46-.64.68-1.93.68a5.87,5.87,0,0,1-1.39-.22,5.6,5.6,0,0,0-1.16-.23h-.74A13.4,13.4,0,0,1,75,85a4.31,4.31,0,0,1-2.27-1.13,4.65,4.65,0,0,0-1.64-1.08c-.23,0-.55.36-1,1.08a3.86,3.86,0,0,0-.62,1.47,3.16,3.16,0,0,1-1.25-1.47c-.15-.5-.32-1-.51-1.48-.38,0-1.08.83-2.1,2.38h-.28a24.82,24.82,0,0,1-.86-2.38,10.64,10.64,0,0,0-3.28-.57,12.24,12.24,0,0,0-2.27.34L57.36,82a12.65,12.65,0,0,1,2-1.3,6.64,6.64,0,0,1,2.95-1.14,2.41,2.41,0,0,1,.46.06,2.23,2.23,0,0,0,.45.06,3.63,3.63,0,0,0,1.28-.43c.58-.28.92-.54,1-.77a5.92,5.92,0,0,0,.15-1.76,6.27,6.27,0,0,0-1.7-4.81,9.5,9.5,0,0,0-4.88-2.05c-.6,2.16-2.31,3.24-5.1,3.24a3.72,3.72,0,0,1-2.73-1.65,5,5,0,0,1-1.36-3A4.21,4.21,0,0,1,51.63,65a4.37,4.37,0,0,1-1.42-3,3.87,3.87,0,0,1,.88-2.5,3.46,3.46,0,0,1,2.3-1.25,2.36,2.36,0,0,1,1.19-2.49A3.06,3.06,0,0,1,54,53.55a4.26,4.26,0,0,1,4.36-4.37,4.37,4.37,0,0,1,3.35,1.42Q63.32,45,68.76,45a6.67,6.67,0,0,1,5,2.27,6.8,6.8,0,0,1,.79.9c-.45,0-.22-.08.68-.25a12.34,12.34,0,0,1,2-.26,5.45,5.45,0,0,1,3.91,1.65,7.72,7.72,0,0,1,2,3.74,8.18,8.18,0,0,1,1.25.34,2.21,2.21,0,0,1,1.25,2.15,2.92,2.92,0,0,1-.45,1.08,6.28,6.28,0,0,1,3.62,5.67A7.67,7.67,0,0,1,88,65.12,2.72,2.72,0,0,1,89.52,67.62ZM66.15,70.11v-.73A3.11,3.11,0,0,0,64.88,67a4,4,0,0,0-2.58-1.07,6.08,6.08,0,0,0-2.95.73Q62.35,66.49,66.15,70.11Zm-1-7a13.33,13.33,0,0,1-1.47-2c-1.59.41-2.38.89-2.38,1.41a7.08,7.08,0,0,1,2,.26A9.06,9.06,0,0,0,65.13,63.08Zm3.46-1.76V58.83c-.91-.15-1.46-.23-1.64-.23v.85ZM76,59.74q-.67-.29-2.55-1.14v4.88Q76.08,62,76,59.74Zm3.12,6.69L77.83,64.9l-2.29,1.61a10.21,10.21,0,0,0-2,1.85A19.32,19.32,0,0,1,79.08,66.43Z"/></svg>