<svg id="Layer_1" data-name="Layer 1" xmlns="http://www.w3.org/2000/svg" viewBox="0 0 100 100"><defs><style>.cls-1{fill:#cac5c0;}.cls-2{fill:#0d0f0f;}</style></defs><circle class="cls-1" cx="50" cy="50" r="50"/><path class="cls-2" d="M40.91,49.46l-1.75-1.21Q31.48,43,29.06,39.76A15,15,0,0,1,26,30.34q0-9.16,7.68-14.95A26.76,26.76,0,0,1,50.21,10,27.16,27.16,0,0,1,66,14.71q7.8,5.26,7.81,13.88,0,10.5-14.68,17,16.69,8.07,16.7,22.49a19.54,19.54,0,0,1-8,16.43Q60.72,90,49.93,90a29.36,29.36,0,0,1-17.37-5.12q-8.36-5.79-8.35-15.35T33.1,53.77A81,81,0,0,1,40.91,49.46Zm4.57,1.92q-12.12,5.5-12.11,17.36c0,5.11,1.63,9.21,4.92,12.31a17.56,17.56,0,0,0,12.59,4.64A18.52,18.52,0,0,0,62.53,82a12.29,12.29,0,0,0,4.78-10.28q0-9.94-13.1-16.12Zm9-8q10.64-4.71,10.64-14.14a13,13,0,0,0-4.51-10.37A16.4,16.4,0,0,0,49.53,15,15.69,15.69,0,0,0,40,18a10.13,10.13,0,0,0-4.45,8.62q0,6.6,6.2,10.64c.8.54,4.39,2.28,10.77,5.25Z"/></svg>