<svg id="Layer_1" data-name="Layer 1" xmlns="http://www.w3.org/2000/svg" viewBox="0 0 100 100"><defs><style>.cls-1{fill:#bab1ab;}.cls-2{fill:#0d0f0f;}</style></defs><circle class="cls-1" cx="50" cy="50" r="50"/><path class="cls-2" d="M90.7,48.62q0,8.28-6,11.29-1.75.87-11,2.38-6,1-6,4.64V77.09c0,.42.13,1.71.38,3.88l.37,4a35.11,35.11,0,0,1-.87,6.14c-1.59.34-3.43.71-5.52,1.14a24.67,24.67,0,0,1-1-5.15,8.63,8.63,0,0,1,.32-1.88,9.12,9.12,0,0,0,.31-1.88A22,22,0,0,0,60,78.47H58.1a2.41,2.41,0,0,0-.26,1.63,12.16,12.16,0,0,1,.38,3.63c-1.43,1-3.39,2.35-5.9,4-.59-.17-.79-.25-.63-.25V78.59c-.16-.41-.58-.58-1.25-.5H48.93l-1.5,11.79a37.54,37.54,0,0,1-4.26,0Q42.29,85.74,40,77.59H39l-1.51,4.77a11.19,11.19,0,0,0,.31,1.94,11.56,11.56,0,0,1,.32,1.94,18.25,18.25,0,0,1-.25,1.88l-.38,3a.85.85,0,0,1-.63.25q-3.77,0-5-1.87a8.29,8.29,0,0,1-1-5.28l1-15a2.87,2.87,0,0,1,.25-1,3.06,3.06,0,0,0,.25-.87q0-1-2.13-4c-.25-.08-1.55-.37-3.89-.88q-2.14-.49-8.4-1.75Q9.31,59,9.3,46.74q0-18.32,15.05-30.48.63,3.39,2.13,9l4.89,1.13q.76.25,7.66,2.76a77.15,77.15,0,0,1-9.16-6.9q-2.13-2.51-2.13-8.4,0-1.38,4.76-3.26a27.51,27.51,0,0,1,6.4-2,88.32,88.32,0,0,1,10.41-.88q15.67,0,25.33,8-3.14,3.65-10.78,7.78c2,.08,4.93-.71,8.77-2.39s5.48-2.51,4.9-2.51q1,0,4,4a59.11,59.11,0,0,1,3.64,5.39,47.23,47.23,0,0,1,5.39,15.43c0,1.92,0,3.3.12,4.13v1Zm-48,2.26q0-5.4-4.71-10.23T27.87,35.83a11,11,0,0,0-8.4,4,13.06,13.06,0,0,0-3.64,9A5.31,5.31,0,0,0,20,54.38a31,31,0,0,0,7.4.89h6.89Q42.66,55.39,42.67,50.88ZM56.33,66.43V62.54c-.58-1.09-1.17-2.21-1.75-3.39a63.58,63.58,0,0,0-2.76-7L50.44,66.8c0,1.17-.25,1.76-.75,1.76a1,1,0,0,1-.76-.25Q48.06,55,48.06,56.77V52.38a.75.75,0,0,0-.63-.38q-4.26,4.39-4.26,14.18c0,3.59.33,5.81,1,6.64A11.32,11.32,0,0,0,46.43,72a8.91,8.91,0,0,1,2.88-.26,14.83,14.83,0,0,1,5.77,1.51C55.92,73.2,56.33,70.94,56.33,66.43ZM84.68,49a12.81,12.81,0,0,0-3.76-9,11.63,11.63,0,0,0-8.66-4Q67,36,62.42,40.78t-4.58,10.1c0,2.92,1.42,4.39,4.26,4.39H76.53Q84.67,55.14,84.68,49Z"/></svg>