<svg id="Layer_1" data-name="Layer 1" xmlns="http://www.w3.org/2000/svg" viewBox="0 0 100 100"><defs><style>.cls-1{fill:#a3c095;}.cls-2{fill:#bab1ab;}.cls-3{fill:#0d0f0f;}</style></defs><path class="cls-1" d="M85.6,14.7A50,50,0,1,1,14.9,85.42"/><path class="cls-2" d="M14.9,85.42A50,50,0,0,1,85.6,14.7"/><path class="cls-3" d="M53.51,28.18c0,2.7-1,4.54-2.95,5.52a27.9,27.9,0,0,1-5.4,1.17c-2,.33-2.95,1.09-2.95,2.27v5c0,.21.06.84.18,1.91l.19,2a16.65,16.65,0,0,1-.43,3l-2.7.56A11.85,11.85,0,0,1,39,47a4.15,4.15,0,0,1,.15-.92,4.31,4.31,0,0,0,.15-.93,10.71,10.71,0,0,0-.76-2.39h-1a1.19,1.19,0,0,0-.13.8,6,6,0,0,1,.19,1.78c-.7.49-1.66,1.14-2.89,2-.29-.08-.39-.12-.31-.12V42.85c-.08-.2-.28-.28-.61-.24h-.74l-.73,5.77a18.08,18.08,0,0,1-2.09,0q-.43-2-1.54-6h-.49l-.73,2.33a5.81,5.81,0,0,0,.15,1,5.59,5.59,0,0,1,.15,1,8.28,8.28,0,0,1-.12.92L27.47,49a.41.41,0,0,1-.3.12,2.75,2.75,0,0,1-2.46-.92,4.06,4.06,0,0,1-.49-2.58l.49-7.36a1.43,1.43,0,0,1,.12-.49,1.31,1.31,0,0,0,.13-.43,4.9,4.9,0,0,0-1.05-2c-.12,0-.75-.18-1.9-.43-.69-.16-2.07-.45-4.11-.86q-4.24-.8-4.24-6.81A18.43,18.43,0,0,1,21,12.34c.2,1.1.55,2.58,1,4.42l2.4.55c.25.08,1.49.54,3.74,1.35a38.55,38.55,0,0,1-4.48-3.37,6.42,6.42,0,0,1-1-4.12c0-.45.78-1,2.33-1.59a13,13,0,0,1,3.13-1,42.43,42.43,0,0,1,5.1-.44q7.66,0,12.4,3.94a19.12,19.12,0,0,1-5.28,3.8,10.84,10.84,0,0,0,4.3-1.16c1.88-.82,2.68-1.23,2.39-1.23.33,0,1,.65,2,2a29.29,29.29,0,0,1,1.78,2.64,23.06,23.06,0,0,1,2.64,7.56c0,.94,0,1.61.06,2v.49ZM30,29.29a7.14,7.14,0,0,0-2.3-5,6.85,6.85,0,0,0-4.94-2.36,5.43,5.43,0,0,0-4.12,2,6.46,6.46,0,0,0-1.78,4.39,2.61,2.61,0,0,0,2,2.72,14.9,14.9,0,0,0,3.62.44h3.38C28.62,31.47,30,30.76,30,29.29Zm6.69,7.61V35c-.28-.54-.57-1.09-.85-1.66a31.33,31.33,0,0,0-1.36-3.44l-.67,7.18c0,.58-.12.86-.37.86a.51.51,0,0,1-.37-.12q-.44-6.51-.43-5.65V30a.35.35,0,0,0-.31-.19c-1.39,1.43-2.08,3.75-2.08,6.94,0,1.76.16,2.84.49,3.25a5.25,5.25,0,0,0,1.1-.43,4.64,4.64,0,0,1,1.41-.12,7.24,7.24,0,0,1,2.83.73C36.48,40.21,36.68,39.11,36.68,36.9Zm13.88-8.56a6.27,6.27,0,0,0-1.84-4.42A5.7,5.7,0,0,0,44.48,22a6.61,6.61,0,0,0-4.82,2.36,7.17,7.17,0,0,0-2.24,4.94,1.87,1.87,0,0,0,2.09,2.15h7.06Q50.56,31.37,50.56,28.34Z"/><path class="cls-3" d="M89.77,67.68a2.87,2.87,0,0,1-.88,2,2.75,2.75,0,0,1-2,.9,2.8,2.8,0,0,1-2.66-1.7l-2.67-.11a15.19,15.19,0,0,0-3.34.74,8.57,8.57,0,0,0-3.07,1.19,7,7,0,0,0-1,3.17,21.09,21.09,0,0,0-.33,3,4.07,4.07,0,0,0,.48,2.24,3.71,3.71,0,0,0,2,1.19c1,.32,1.62.5,1.84.54a7.22,7.22,0,0,0,.74-.06h.68a5.63,5.63,0,0,1,1.53.23c.76.22,1.08.52,1,.9a9.22,9.22,0,0,0-2.78.34l1.59.8c0,.45-.65.68-1.93.68a5.49,5.49,0,0,1-1.39-.23,6.41,6.41,0,0,0-1.16-.23h-.74A13.48,13.48,0,0,1,75.25,85,4.23,4.23,0,0,1,73,83.9a4.65,4.65,0,0,0-1.64-1.08c-.23,0-.56.36-1,1.08a3.77,3.77,0,0,0-.62,1.48A3.14,3.14,0,0,1,68.5,83.9c-.15-.49-.32-1-.51-1.48-.38,0-1.08.84-2.1,2.39h-.28c-.08-.11-.36-.91-.86-2.39a10.91,10.91,0,0,0-3.28-.56,11.33,11.33,0,0,0-2.27.34l-1.59-.11a13.18,13.18,0,0,1,2-1.31,6.72,6.72,0,0,1,2.95-1.13,2.41,2.41,0,0,1,.46.06,3.05,3.05,0,0,0,.45.05,3.47,3.47,0,0,0,1.27-.42c.59-.29.93-.54,1-.77a5.92,5.92,0,0,0,.15-1.76A6.31,6.31,0,0,0,64.19,72a9.58,9.58,0,0,0-4.88-2q-.91,3.22-5.1,3.23a3.74,3.74,0,0,1-2.73-1.64,5,5,0,0,1-1.36-3,4.21,4.21,0,0,1,1.76-3.46,4.37,4.37,0,0,1-1.42-3,3.82,3.82,0,0,1,.88-2.5,3.4,3.4,0,0,1,2.3-1.25,2.36,2.36,0,0,1,1.19-2.49,3.07,3.07,0,0,1-.62-2.21,4.26,4.26,0,0,1,4.36-4.37,4.34,4.34,0,0,1,3.35,1.42Q63.57,45,69,45.05a6.71,6.71,0,0,1,5,2.27,7.2,7.2,0,0,1,.79.91c-.45,0-.23-.09.68-.26a12,12,0,0,1,2-.25,5.5,5.5,0,0,1,3.91,1.64,7.92,7.92,0,0,1,2,3.75,7.14,7.14,0,0,1,1.25.34,2.2,2.2,0,0,1,1.25,2.15,2.82,2.82,0,0,1-.46,1.08q3.63,2,3.63,5.67a7.72,7.72,0,0,1-.79,2.84A2.71,2.71,0,0,1,89.77,67.68ZM66.4,70.18v-.74a3.1,3.1,0,0,0-1.27-2.38A4,4,0,0,0,62.55,66a6.09,6.09,0,0,0-2.95.74Q62.6,66.56,66.4,70.18Zm-1-7a14,14,0,0,1-1.47-2c-1.59.42-2.39.89-2.39,1.42a6.75,6.75,0,0,1,2,.26A9.06,9.06,0,0,0,65.38,63.15Zm3.46-1.76v-2.5a15.69,15.69,0,0,0-1.64-.22v.85Zm7.37-1.59-2.55-1.13v4.87C75.44,62.52,76.29,61.28,76.21,59.8Zm3.12,6.69L78.08,65l-2.29,1.61a10.17,10.17,0,0,0-2,1.84A19.21,19.21,0,0,1,79.33,66.49Z"/></svg>