<svg id="Layer_1" data-name="Layer 1" xmlns="http://www.w3.org/2000/svg" viewBox="0 0 100 100"><defs><style>.cls-1{fill:#e49977;}.cls-2{fill:#bab1ab;}.cls-3{fill:#0d0f0f;}</style></defs><path class="cls-1" d="M85.29,14.64A50,50,0,1,1,14.58,85.35"/><path class="cls-2" d="M14.58,85.35A50,50,0,0,1,85.29,14.64"/><path class="cls-3" d="M88.24,74.44Q85.66,80.59,78,80.58a14.87,14.87,0,0,0-3,.35c-1.64.36-2.46.84-2.46,1.47a1,1,0,0,0,.41.67,1.13,1.13,0,0,0,.71.38q-1.47,0,2,.09c2.31.06,3.75.09,4.34.09q-5.1,3-17,2.75a8.65,8.65,0,0,1-6.73-3.45,10.79,10.79,0,0,1-2.75-7.2,9.94,9.94,0,0,1,2.84-7.17,9.37,9.37,0,0,1,7.05-3,9.92,9.92,0,0,1,2.48.41,10.67,10.67,0,0,0,2.08.41,11.79,11.79,0,0,0,5.39-1.79,25.39,25.39,0,0,0,3-1.78q-.58,6.14-4.1,8.25c-1.68,1-2.51,1.93-2.51,2.86a1.58,1.58,0,0,0,1,1.41,3.55,3.55,0,0,0,4.8-1.47,4.76,4.76,0,0,0,1.28-3.39,16.73,16.73,0,0,1,.24-4.21,4.46,4.46,0,0,1,.85-1.73,3.48,3.48,0,0,1,1.31-1.26,6.56,6.56,0,0,1-.38,1.75,7.11,7.11,0,0,0-.38,1.82,2.69,2.69,0,0,0,.71,2c.7-.27,1.32-1.15,1.87-2.64A10.61,10.61,0,0,0,81.86,63a7.38,7.38,0,0,1-4.71-2.23,6.19,6.19,0,0,1-2.25-4.56,2.89,2.89,0,0,1,.11-.82c.23.35.59.9,1.06,1.64.66,1,1.17,1.46,1.52,1.46s.7-.48.7-1.46a6,6,0,0,0-1-3.39,3.3,3.3,0,0,0-2.86-1.82,5.91,5.91,0,0,0-2.46.88,6.49,6.49,0,0,1-3,.88,25.19,25.19,0,0,1-3.63-1.06C69.14,51.87,71,51.3,71,50.8q0-2-7.78-2.69l-2.81-.24c.16-.19,1.27-.4,3.34-.64,1.75-.19,3-.29,3.68-.29q13.94,0,17.67,13.52a2.17,2.17,0,0,0,.65-1.78,11.65,11.65,0,0,0-.94-4q-.34-.95-1.11-2.85,4.8,6.12,4.8,11.59a10.32,10.32,0,0,1-1.35,5.23,21.29,21.29,0,0,1-3.27,4.06,28.05,28.05,0,0,0-3.28,3.82,32.94,32.94,0,0,0,4.21-1.35,12.27,12.27,0,0,0,4-3A6.75,6.75,0,0,1,88.24,74.44Zm-25.52-23a1.33,1.33,0,0,1-1.17,1.35L60,53c-.55.27-1.35,1.35-2.4,3.22-.12-.58-.29-1.4-.52-2.46a4.85,4.85,0,0,0-1.76.94c-.35.27-.92.68-1.7,1.23A8.63,8.63,0,0,1,56,51.68c1.41-1.6,2.77-2.4,4.1-2.4C61.84,49.28,62.72,50,62.72,51.44ZM72.9,56.83a2,2,0,0,1-1.08,1.67,4.08,4.08,0,0,1-2.13.67,3.12,3.12,0,0,1-2.52-1.58,6.76,6.76,0,0,0-2.75-2.52,1,1,0,0,1,.7-.29,4.14,4.14,0,0,1,1.79.82,4.44,4.44,0,0,0,1.61.82c.19,0,.51-.27,1-.82A1.92,1.92,0,0,1,71,54.78C72.26,54.78,72.9,55.46,72.9,56.83Z"/><path class="cls-3" d="M53.19,28.11q0,4-2.94,5.53a29.55,29.55,0,0,1-5.41,1.16c-2,.33-2.94,1.09-2.94,2.27v5c0,.2.06.84.18,1.9l.19,2a17,17,0,0,1-.44,3c-.77.17-1.67.35-2.7.56A12.55,12.55,0,0,1,38.64,47,3.9,3.9,0,0,1,38.8,46a4.33,4.33,0,0,0,.15-.92,10.56,10.56,0,0,0-.76-2.4h-1a1.26,1.26,0,0,0-.12.8,6,6,0,0,1,.18,1.78c-.69.49-1.65,1.15-2.88,2-.29-.09-.39-.13-.31-.13V42.78c-.08-.2-.29-.28-.62-.24h-.73L32,48.31a18.07,18.07,0,0,1-2.09,0c-.28-1.35-.79-3.35-1.53-6H27.9c-.45,1.44-.7,2.21-.74,2.34a5.1,5.1,0,0,0,.16.95,5.74,5.74,0,0,1,.15,1,7,7,0,0,1-.13.92l-.18,1.47a.42.42,0,0,1-.31.13,2.75,2.75,0,0,1-2.45-.92,4.09,4.09,0,0,1-.5-2.58l.5-7.37a1.48,1.48,0,0,1,.12-.49,1.41,1.41,0,0,0,.12-.43,5,5,0,0,0-1-2c-.12,0-.76-.18-1.91-.43-.69-.16-2.06-.45-4.11-.85-2.82-.53-4.23-2.81-4.23-6.82a18.42,18.42,0,0,1,7.36-14.92c.21,1.11.56,2.58,1.05,4.42l2.39.56q.38.12,3.75,1.35a38,38,0,0,1-4.48-3.38,6.34,6.34,0,0,1-1.05-4.11c0-.45.78-1,2.33-1.6a13.49,13.49,0,0,1,3.14-1,41.86,41.86,0,0,1,5.09-.43q7.68,0,12.4,3.93a19.11,19.11,0,0,1-5.28,3.81,10.85,10.85,0,0,0,4.3-1.17q2.82-1.23,2.4-1.23c.32,0,1,.66,2,2a27.33,27.33,0,0,1,1.78,2.65,23,23,0,0,1,2.64,7.55c0,.94,0,1.61.06,2v.49ZM29.68,29.22a7.16,7.16,0,0,0-2.3-5,6.89,6.89,0,0,0-4.95-2.36,5.4,5.4,0,0,0-4.11,2,6.4,6.4,0,0,0-1.78,4.39,2.6,2.6,0,0,0,2,2.72,15.51,15.51,0,0,0,3.62.43h3.37Q29.69,31.43,29.68,29.22Zm6.69,7.61v-1.9c-.29-.53-.57-1.09-.86-1.66a31.64,31.64,0,0,0-1.35-3.44L33.48,37c0,.57-.12.86-.36.86a.46.46,0,0,1-.37-.13q-.44-6.51-.43-5.64V30a.36.36,0,0,0-.31-.19q-2.08,2.16-2.09,6.94c0,1.76.17,2.84.49,3.26a5.77,5.77,0,0,0,1.11-.44,4.55,4.55,0,0,1,1.41-.12,7.28,7.28,0,0,1,2.83.74C36.17,40.15,36.37,39,36.37,36.83Zm13.88-8.56a6.26,6.26,0,0,0-1.85-4.41,5.68,5.68,0,0,0-4.23-1.95,6.61,6.61,0,0,0-4.82,2.36,7.15,7.15,0,0,0-2.24,4.95,1.86,1.86,0,0,0,2.08,2.14h7.06C48.92,31.32,50.25,30.3,50.25,28.27Z"/></svg>