<svg id="Layer_1" data-name="Layer 1" xmlns="http://www.w3.org/2000/svg" viewBox="0 0 100 100"><defs><style>.cls-1{fill:#a3c095;}.cls-2{fill:#0d0f0f;}</style></defs><path class="cls-1" d="M100,50A50,50,0,1,1,50,0,50,50,0,0,1,100,50Z"/><path class="cls-2" d="M93.66,55.43a6.31,6.31,0,0,1-1.94,4.5,6,6,0,0,1-4.43,2,6.16,6.16,0,0,1-5.87-3.75l-5.87-.25a33.15,33.15,0,0,0-7.38,1.62c-3.91,1.09-6.16,2-6.74,2.63q-1.38,1.5-2.25,7a45,45,0,0,0-.75,6.63,8.93,8.93,0,0,0,1.06,4.93c.71,1,2.17,1.92,4.37,2.62s3.56,1.11,4.06,1.19a15,15,0,0,0,1.63-.13h1.5a12.4,12.4,0,0,1,3.37.5c1.67.5,2.38,1.17,2.13,2a20.21,20.21,0,0,0-6.13.75l3.5,1.75c0,1-1.41,1.5-4.25,1.5a13.21,13.21,0,0,1-3.06-.5,13.46,13.46,0,0,0-2.56-.5H62.43a29.79,29.79,0,0,1-.75,3.75c-1.42-.09-3.08-.92-5-2.5s-3.12-2.37-3.62-2.37-1.21.79-2.12,2.37a8.48,8.48,0,0,0-1.38,3.25,6.94,6.94,0,0,1-2.75-3.25c-.33-1.08-.71-2.17-1.12-3.25q-1.24.14-4.62,5.25h-.63c-.16-.25-.79-2-1.87-5.25a23.77,23.77,0,0,0-7.25-1.25,25.66,25.66,0,0,0-5,.75l-3.5-.25a29.7,29.7,0,0,1,4.37-2.87q4.25-2.51,6.5-2.5a5,5,0,0,1,1,.13,5.52,5.52,0,0,0,1,.12,7.56,7.56,0,0,0,2.81-.94c1.29-.62,2-1.18,2.24-1.68a13.63,13.63,0,0,0,.32-3.88q0-7.11-3.75-10.61c-2.17-2.09-5.75-3.58-10.74-4.5q-2,7.13-11.24,7.12-3,0-6-3.62c-2-2.42-3-4.62-3-6.62a9.28,9.28,0,0,1,3.87-7.63q-3.12-3.24-3.12-6.61A8.39,8.39,0,0,1,9,37.57a7.42,7.42,0,0,1,5.06-2.75c-.17-2.66.7-4.5,2.62-5.5-.92-.91-1.37-2.53-1.37-4.87A9.38,9.38,0,0,1,25,14.83,9.57,9.57,0,0,1,32.32,18Q36,5.59,47.94,5.59a14.76,14.76,0,0,1,11,5,16.78,16.78,0,0,1,1.75,2q-1.5,0,1.5-.57a27.06,27.06,0,0,1,4.37-.56,12.06,12.06,0,0,1,8.62,3.62,17.31,17.31,0,0,1,4.5,8.25,17.21,17.21,0,0,1,2.75.75,4.87,4.87,0,0,1,2.75,4.74,6.53,6.53,0,0,1-1,2.38q8,4.5,8,12.49a17,17,0,0,1-1.75,6.25A6,6,0,0,1,93.66,55.43Zm-51.47,5.5V59.3a6.84,6.84,0,0,0-2.81-5.24,8.81,8.81,0,0,0-5.68-2.37,13.45,13.45,0,0,0-6.5,1.62Q33.82,52.94,42.19,60.93ZM39.94,45.44a32.29,32.29,0,0,1-3.25-4.37q-5.23,1.36-5.24,3.12a15.07,15.07,0,0,1,4.37.56A20.3,20.3,0,0,0,39.94,45.44Zm7.62-3.87v-5.5a36.23,36.23,0,0,0-3.62-.5v1.87Zm16.24-3.5q-1.5-.63-5.62-2.5V46.31Q64,42.94,63.8,38.07Zm6.87,14.74-2.75-3.37L62.86,53a22.72,22.72,0,0,0-4.43,4.06A42.28,42.28,0,0,1,70.67,52.81Z"/></svg>