<svg id="Layer_1" data-name="Layer 1" xmlns="http://www.w3.org/2000/svg" viewBox="0 0 100 100"><defs><style>.cls-1{fill:#c1d7e9;}.cls-2{fill:#a3c095;}.cls-3{fill:#0d0f0f;}</style></defs><path class="cls-1" d="M85.35,14.64a50,50,0,1,1-70.7,70.71"/><path class="cls-2" d="M14.65,85.35a50,50,0,0,1,70.7-70.71"/><path class="cls-3" d="M76.72,83.68a13.42,13.42,0,0,1-9.94,4.1,13.14,13.14,0,0,1-10.53-4.54,16.43,16.43,0,0,1-3.67-11q0-7.2,6.27-16.43a61.9,61.9,0,0,1,12-13.26,35.82,35.82,0,0,0-1,6.56,15.61,15.61,0,0,0,2.82,8.72q3.45,5,5.26,7.49a15.12,15.12,0,0,1,2.81,8.29A13.87,13.87,0,0,1,76.72,83.68Zm-.07-15.39a6.55,6.55,0,0,0-2.52-3.21,2.9,2.9,0,0,1,.21,1.23,15.78,15.78,0,0,1-.86,4.32l-.94,2.88A2.23,2.23,0,0,0,75.06,76q2.67,0,2.67-3.54A10.58,10.58,0,0,0,76.65,68.29Z"/><path class="cls-3" d="M51.64,34.29a2.86,2.86,0,0,1-.88,2,2.75,2.75,0,0,1-2,.9,2.8,2.8,0,0,1-2.66-1.7l-2.66-.11a15.12,15.12,0,0,0-3.35.74A8.39,8.39,0,0,0,37,37.35a6.74,6.74,0,0,0-1,3.17,20,20,0,0,0-.34,3,4.07,4.07,0,0,0,.48,2.24,3.71,3.71,0,0,0,2,1.19c1,.32,1.62.5,1.85.54a7.08,7.08,0,0,0,.73-.06h.68a5.75,5.75,0,0,1,1.54.23c.75.22,1.07.53,1,.9a9.22,9.22,0,0,0-2.78.34l1.59.8c0,.45-.65.68-1.93.68a5.49,5.49,0,0,1-1.39-.23,6.26,6.26,0,0,0-1.16-.23h-.74a13.48,13.48,0,0,1-.34,1.71,4.27,4.27,0,0,1-2.27-1.14,4.65,4.65,0,0,0-1.64-1.08c-.23,0-.55.36-1,1.08A3.94,3.94,0,0,0,31.62,52a3.14,3.14,0,0,1-1.25-1.48q-.23-.73-.51-1.47c-.38,0-1.08.83-2.1,2.38h-.28c-.08-.11-.36-.91-.86-2.38a10.64,10.64,0,0,0-3.28-.57,11.43,11.43,0,0,0-2.27.34l-1.59-.11a13.79,13.79,0,0,1,2-1.31,6.72,6.72,0,0,1,2.95-1.13,2.41,2.41,0,0,1,.46.06,2.11,2.11,0,0,0,.45,0,3.56,3.56,0,0,0,1.28-.42c.58-.29.92-.54,1-.77a5.92,5.92,0,0,0,.15-1.76,6.31,6.31,0,0,0-1.7-4.82,9.58,9.58,0,0,0-4.88-2c-.6,2.15-2.31,3.23-5.1,3.23a3.7,3.7,0,0,1-2.73-1.64,5,5,0,0,1-1.36-3,4.21,4.21,0,0,1,1.76-3.46,4.37,4.37,0,0,1-1.42-3,3.87,3.87,0,0,1,.88-2.5,3.42,3.42,0,0,1,2.3-1.25,2.37,2.37,0,0,1,1.19-2.49,3.07,3.07,0,0,1-.62-2.21,4.27,4.27,0,0,1,4.36-4.37,4.32,4.32,0,0,1,3.35,1.42q1.65-5.62,7.09-5.62a6.71,6.71,0,0,1,5,2.27,7.2,7.2,0,0,1,.79.91c-.45,0-.22-.09.68-.26a12,12,0,0,1,2-.25A5.48,5.48,0,0,1,43.24,16a7.87,7.87,0,0,1,2,3.74,8.14,8.14,0,0,1,1.24.34,2.23,2.23,0,0,1,1.25,2.16,2.92,2.92,0,0,1-.45,1.08Q51,25.32,51,29a7.77,7.77,0,0,1-.8,2.84A2.71,2.71,0,0,1,51.64,34.29ZM28.27,36.78V36A3.1,3.1,0,0,0,27,33.66a4,4,0,0,0-2.58-1.07,6.11,6.11,0,0,0-3,.73Q24.47,33.16,28.27,36.78Zm-1-7a14.75,14.75,0,0,1-1.47-2c-1.59.42-2.38.89-2.38,1.42a6.72,6.72,0,0,1,2,.26A9.16,9.16,0,0,0,27.25,29.75ZM30.72,28v-2.5a15.38,15.38,0,0,0-1.65-.22v.85Zm7.37-1.59c-.46-.19-1.31-.57-2.56-1.13v4.87C37.31,29.12,38.16,27.88,38.09,26.4Zm3.11,6.69L40,31.56l-2.3,1.62a10.17,10.17,0,0,0-2,1.84A19.32,19.32,0,0,1,41.2,33.09Z"/></svg>