<svg id="Layer_1" data-name="Layer 1" xmlns="http://www.w3.org/2000/svg" viewBox="0 0 100 100"><defs><style>.cls-1{fill:#f8f6d8;}.cls-2{fill:#a3c095;}.cls-3{fill:#0d0f0f;}</style></defs><path class="cls-1" d="M85.35,14.64a50,50,0,1,1-70.7,70.71"/><path class="cls-2" d="M14.65,85.35a50,50,0,0,1,70.7-70.71"/><path class="cls-3" d="M88,73.11c-2.44-2.26-4-3.49-4.85-3.68-.57-.14-1.13.2-1.67,1a1.94,1.94,0,0,1-2.27.86,13.45,13.45,0,0,1-2.33-1A6.12,6.12,0,0,0,75.37,72a2.22,2.22,0,0,0,.55,1.62,2.54,2.54,0,0,0,1.3,1.18,4.6,4.6,0,0,0,1.09.08,4.49,4.49,0,0,1,.93.06c.44.1.47,1,.07,2.59a36.74,36.74,0,0,1-2.79,6.89c-.06-3.9-.61-6-1.65-6.23a2.76,2.76,0,0,0-1,.11,2.94,2.94,0,0,1-1.08.08c-1-.25-1.75-1.43-2.13-3.54-1.72-.15-2.76.5-3.1,1.95a2,2,0,0,0,.59,2c.56.59.82,1,.78,1.16-.23,1-2,2.13-5.36,3.47-1.77.73-3,1.23-3.68,1.53A14.43,14.43,0,0,0,62,82.76a7.16,7.16,0,0,0,1.53-2.55c.09-.36-.21-1-.88-1.82A2.76,2.76,0,0,1,61.92,76a5.69,5.69,0,0,1,1.2-2.12,2.23,2.23,0,0,0-1.49-1.22c-1.44-.35-2.28,0-2.5.89.15-.65,0-.16-.35,1.46-.25,1.2-1.3,1.58-3.14,1.15a44,44,0,0,1-6.86-2.68q6-.06,6.41-1.9a8.19,8.19,0,0,1,.1-1.35c.12-1.16,1.16-2,3.1-2.47.08-1.73-.59-2.77-2-3.11-.22,0-.71.23-1.46.85a2.38,2.38,0,0,1-1.9.75c-.87-.2-1.76-1.41-2.69-3.62q-.63-1.64-2-4.88l2.18,1.89A6.71,6.71,0,0,0,53,61.06c.51.12,1.11-.2,1.81-1A2.21,2.21,0,0,1,57,59.23a20.19,20.19,0,0,1,2,1.16,5.17,5.17,0,0,0,1.59-2.08,2.46,2.46,0,0,0-.43-1.68,2.18,2.18,0,0,0-1.24-1.18,3.07,3.07,0,0,0-.87,0,3.11,3.11,0,0,1-.88,0q-1-.23-.39-2.67c.1-.43,1.11-2.81,3-7.12a9.86,9.86,0,0,0,0,3.2c.18,1.95.68,3,1.52,3.23a2.92,2.92,0,0,0,.94-.12,2.66,2.66,0,0,1,1.11-.08,2.44,2.44,0,0,1,1.72,1.9l.46,1.66A2.56,2.56,0,0,0,67.64,55a2.82,2.82,0,0,0,1.23-1.77,2.08,2.08,0,0,0-.57-2.06c-.57-.57-.83-1-.77-1.18q.27-1.14,4.49-3a28.12,28.12,0,0,1,4.35-1.66q-3.09,2.59-3.43,4a2.44,2.44,0,0,0,.53,1.85,5.68,5.68,0,0,1,1,1.77,5.23,5.23,0,0,1-.93,3.39,4.65,4.65,0,0,0,2,1.56,1.45,1.45,0,0,0,2-1.25c0-.11.06-.46.11-1.06a3.49,3.49,0,0,1,.15-1c.27-.48,1.32-.49,3.16-.05a55.17,55.17,0,0,1,7,2.7l-3.8.12c-1.55.09-2.39.4-2.52.94a5.37,5.37,0,0,0,0,1.37,5.55,5.55,0,0,1-.06,1.41c-.12.51-.56.9-1.31,1.18l-2.15.86a8.69,8.69,0,0,0,.53,1.62,1.89,1.89,0,0,0,1.3,1c.44.1.93-.19,1.47-.86a1.86,1.86,0,0,1,2-.72c1,.23,1.86,1.4,2.65,3.5Q86.57,69.51,88,73.11Zm-11.27-6a9,9,0,0,0-6.52-10.61A9,9,0,0,0,59.5,63a8,8,0,0,0,1.14,6.6,9.08,9.08,0,0,0,12.22,3A8.27,8.27,0,0,0,76.73,67.09Zm-.82-.19a7.49,7.49,0,0,1-3.53,4.93,8.2,8.2,0,0,1-11-2.68A7.74,7.74,0,0,1,64,58.35a7.76,7.76,0,0,1,6-1A7.66,7.66,0,0,1,74.89,61,7.54,7.54,0,0,1,75.91,66.9Z"/><path class="cls-3" d="M51.64,34.31a2.87,2.87,0,0,1-.88,2,2.75,2.75,0,0,1-2,.9,2.8,2.8,0,0,1-2.66-1.7l-2.66-.11a14.54,14.54,0,0,0-3.35.74A8.59,8.59,0,0,0,37,37.38a6.74,6.74,0,0,0-1,3.17,20,20,0,0,0-.34,3,4.07,4.07,0,0,0,.48,2.24,3.71,3.71,0,0,0,2,1.19c1,.32,1.62.5,1.85.54a7.08,7.08,0,0,0,.73-.06h.68a5.75,5.75,0,0,1,1.54.23c.75.23,1.07.53,1,.91a8.59,8.59,0,0,0-2.78.34l1.59.79c0,.45-.64.68-1.93.68a6.07,6.07,0,0,1-1.39-.23A5.94,5.94,0,0,0,38.2,50h-.74a13.75,13.75,0,0,1-.34,1.7,4.27,4.27,0,0,1-2.27-1.14,4.65,4.65,0,0,0-1.64-1.08c-.23,0-.55.36-1,1.08A3.94,3.94,0,0,0,31.62,52a3.14,3.14,0,0,1-1.25-1.48q-.23-.73-.51-1.47c-.38,0-1.08.83-2.1,2.38h-.28c-.08-.12-.36-.91-.85-2.38a10.75,10.75,0,0,0-3.29-.57,11.43,11.43,0,0,0-2.27.34l-1.59-.11a13.79,13.79,0,0,1,2-1.31,6.72,6.72,0,0,1,2.95-1.13,2.32,2.32,0,0,1,.46.06,3.2,3.2,0,0,0,.45,0A3.56,3.56,0,0,0,26.6,46a2.11,2.11,0,0,0,1-.77,6.47,6.47,0,0,0,.14-1.76,6.31,6.31,0,0,0-1.7-4.82,9.58,9.58,0,0,0-4.88-2c-.6,2.16-2.31,3.23-5.1,3.23a3.74,3.74,0,0,1-2.73-1.64,5,5,0,0,1-1.36-3,4.21,4.21,0,0,1,1.76-3.46,4.37,4.37,0,0,1-1.42-3,3.87,3.87,0,0,1,.88-2.5A3.42,3.42,0,0,1,15.51,25a2.37,2.37,0,0,1,1.19-2.49,3.09,3.09,0,0,1-.62-2.21,4.26,4.26,0,0,1,4.36-4.37,4.37,4.37,0,0,1,3.35,1.42q1.65-5.62,7.09-5.62a6.71,6.71,0,0,1,5,2.27,7.2,7.2,0,0,1,.79.91c-.45,0-.22-.09.68-.26a12,12,0,0,1,2-.25A5.48,5.48,0,0,1,43.24,16a7.85,7.85,0,0,1,2,3.75,7.33,7.33,0,0,1,1.24.34,2.2,2.2,0,0,1,1.25,2.15,2.92,2.92,0,0,1-.45,1.08C49.74,24.67,51,26.56,51,29a7.77,7.77,0,0,1-.8,2.84A2.71,2.71,0,0,1,51.64,34.31Zm-23.37,2.5v-.73A3.11,3.11,0,0,0,27,33.69a4,4,0,0,0-2.58-1.07,6.11,6.11,0,0,0-3,.73Q24.47,33.19,28.27,36.81Zm-1-7a14.75,14.75,0,0,1-1.47-2c-1.59.42-2.38.89-2.38,1.42a7.08,7.08,0,0,1,2,.26A9.16,9.16,0,0,0,27.25,29.78ZM30.71,28v-2.5c-.91-.14-1.45-.22-1.64-.22v.85Zm7.38-1.59c-.46-.18-1.31-.56-2.56-1.13v4.88C37.31,29.15,38.16,27.91,38.09,26.43Zm3.11,6.7L40,31.59l-2.3,1.62a10.17,10.17,0,0,0-2,1.84A19.3,19.3,0,0,1,41.2,33.13Z"/></svg>