<svg id="Layer_1" data-name="Layer 1" xmlns="http://www.w3.org/2000/svg" viewBox="0 0 100 100"><defs><style>.cls-1{fill:#e49977;}.cls-2{fill:#0d0f0f;}</style></defs><circle class="cls-1" cx="50" cy="50" r="50"/><path class="cls-2" d="M87.17,66.91Q81.56,80.29,64.9,80.28a32.43,32.43,0,0,0-6.63.76q-5.34,1.15-5.34,3.19a2.21,2.21,0,0,0,.89,1.46,2.44,2.44,0,0,0,1.53.83c-2.13,0-.68.06,4.32.19s8.15.19,9.43.19q-11.08,6.5-37,6-8.53-.12-14.64-7.51a23.5,23.5,0,0,1-6-15.66A21.72,21.72,0,0,1,17.6,54.12a20.44,20.44,0,0,1,15.34-6.43,22.57,22.57,0,0,1,5.41.89,22,22,0,0,0,4.52.89q4.71,0,11.71-3.88t6.63-3.88q-1.29,13.36-8.92,17.95-5.48,3.18-5.47,6.23c0,1.27.76,2.29,2.29,3.06a8.74,8.74,0,0,0,3.94.89q3.31,0,6.5-4.07t2.8-7.39a35.75,35.75,0,0,1,.51-9.16,9.67,9.67,0,0,1,1.84-3.75,7.53,7.53,0,0,1,2.87-2.74,15.3,15.3,0,0,1-.83,3.82,15.18,15.18,0,0,0-.83,3.94,5.85,5.85,0,0,0,1.53,4.33c1.53-.59,2.88-2.5,4.07-5.73A23.41,23.41,0,0,0,73.3,42q-5.35-.26-10.25-4.84t-4.9-9.92a6.5,6.5,0,0,1,.25-1.79c.51.77,1.27,2,2.29,3.57,1.45,2.12,2.55,3.18,3.32,3.18,1,0,1.52-1.06,1.52-3.18a13.24,13.24,0,0,0-2.16-7.39q-2.43-3.94-6.24-3.94c-1.19,0-3,.63-5.35,1.91a14,14,0,0,1-6.49,1.91,57.66,57.66,0,0,1-7.89-2.3q12.35-2,12.35-3.69,0-4.32-16.93-5.85L26.7,9.12c.34-.43,2.76-.89,7.26-1.4,3.82-.42,6.49-.64,8-.64q30.3,0,38.44,29.41a4.75,4.75,0,0,0,1.41-3.87,25.53,25.53,0,0,0-2-8.78c-.51-1.37-1.32-3.44-2.42-6.19Q87.81,31,87.81,42.85a22.51,22.51,0,0,1-2.93,11.38,45.93,45.93,0,0,1-7.13,8.82,62.13,62.13,0,0,0-7.13,8.32,69.26,69.26,0,0,0,9.17-2.93A26.6,26.6,0,0,0,88.57,62,14.43,14.43,0,0,1,87.17,66.91Zm-55.5-50c0,1.52-.85,2.5-2.55,2.93l-3.31.51q-1.78.89-5.22,7-.37-1.92-1.14-5.35a10.33,10.33,0,0,0-3.82,2c-.76.59-2,1.48-3.69,2.67Q12.7,22.1,17,17.4q4.59-5.22,8.91-5.22Q31.67,12.18,31.67,16.89ZM53.82,28.6a4.26,4.26,0,0,1-2.36,3.63,8.79,8.79,0,0,1-4.64,1.46c-2,0-3.86-1.14-5.47-3.44-2-2.8-4-4.62-6-5.47a2.13,2.13,0,0,1,1.53-.64c.76,0,2.06.6,3.88,1.78s3,1.79,3.5,1.79,1.13-.6,2.1-1.79a4.22,4.22,0,0,1,3.25-1.78Q53.82,24.14,53.82,28.6Z"/></svg>