<svg id="Layer_1" data-name="Layer 1" xmlns="http://www.w3.org/2000/svg" viewBox="0 0 100 100"><defs><style>.cls-1{fill:#a3c095;}.cls-2{fill:#e49977;}.cls-3{fill:#0d0f0f;}</style></defs><path class="cls-1" d="M85.35,14.64a50,50,0,1,1-70.7,70.71"/><path class="cls-2" d="M14.65,85.35a50,50,0,0,1,70.7-70.71"/><path class="cls-3" d="M51.94,38.08q-2.58,6.15-10.24,6.14a14.87,14.87,0,0,0-3.05.35c-1.64.36-2.45.84-2.45,1.47a1,1,0,0,0,.4.67,1.18,1.18,0,0,0,.71.38q-1.47,0,2,.09c2.31.06,3.75.09,4.34.09q-5.1,3-17,2.75a8.65,8.65,0,0,1-6.73-3.45,10.79,10.79,0,0,1-2.75-7.2A9.94,9.94,0,0,1,20,32.2a9.37,9.37,0,0,1,7.05-3,10.3,10.3,0,0,1,2.48.4,9.93,9.93,0,0,0,2.08.41A11.75,11.75,0,0,0,37,28.28a24.19,24.19,0,0,0,3-1.79q-.59,6.15-4.1,8.25c-1.68,1-2.51,1.94-2.51,2.87a1.58,1.58,0,0,0,1,1.41,4,4,0,0,0,1.81.4,4,4,0,0,0,3-1.87,4.77,4.77,0,0,0,1.28-3.39A16.73,16.73,0,0,1,40.76,30a4.39,4.39,0,0,1,.85-1.73A3.39,3.39,0,0,1,42.92,27a6.56,6.56,0,0,1-.38,1.75,7.11,7.11,0,0,0-.38,1.82,2.72,2.72,0,0,0,.7,2c.71-.27,1.33-1.15,1.88-2.64a10.9,10.9,0,0,0,.82-3.27,7.43,7.43,0,0,1-4.72-2.23,6.19,6.19,0,0,1-2.25-4.56,2.91,2.91,0,0,1,.12-.82l1,1.64c.66,1,1.17,1.46,1.52,1.46s.71-.49.71-1.46a6.13,6.13,0,0,0-1-3.4,3.29,3.29,0,0,0-2.87-1.81,5.93,5.93,0,0,0-2.45.88,6.52,6.52,0,0,1-3,.88,27.74,27.74,0,0,1-3.63-1.06q5.69-.93,5.68-1.7,0-2-7.78-2.69c-.51,0-1.44-.11-2.81-.23.15-.19,1.27-.41,3.34-.64,1.75-.2,3-.3,3.68-.3q13.94,0,17.67,13.52a2.18,2.18,0,0,0,.65-1.78,11.6,11.6,0,0,0-.94-4c-.23-.63-.6-1.59-1.11-2.85q4.8,6.12,4.8,11.58a10.29,10.29,0,0,1-1.35,5.23,20.69,20.69,0,0,1-3.27,4.06,28,28,0,0,0-3.28,3.83,32.94,32.94,0,0,0,4.21-1.35,12.31,12.31,0,0,0,4-3A6.85,6.85,0,0,1,51.94,38.08Zm-25.52-23a1.33,1.33,0,0,1-1.17,1.35l-1.52.23c-.55.27-1.35,1.35-2.4,3.22-.11-.59-.29-1.41-.52-2.46a4.69,4.69,0,0,0-1.76.94c-.35.27-.92.68-1.7,1.23a8.59,8.59,0,0,1,2.34-4.27c1.41-1.6,2.77-2.4,4.1-2.4C25.54,12.92,26.42,13.64,26.42,15.08ZM36.6,20.46a1.94,1.94,0,0,1-1.08,1.67,4,4,0,0,1-2.13.68,3.11,3.11,0,0,1-2.52-1.59,6.8,6.8,0,0,0-2.75-2.51.93.93,0,0,1,.7-.29,4.21,4.21,0,0,1,1.79.81,4.51,4.51,0,0,0,1.6.82c.2,0,.52-.27,1-.82a1.92,1.92,0,0,1,1.49-.81C36,18.42,36.6,19.1,36.6,20.46Z"/><path class="cls-3" d="M89.52,67.62a2.85,2.85,0,0,1-.88,2,2.77,2.77,0,0,1-2,.91A2.81,2.81,0,0,1,84,68.86l-2.67-.11a15.19,15.19,0,0,0-3.34.74,8.59,8.59,0,0,0-3.06,1.19,6.84,6.84,0,0,0-1,3.18,21,21,0,0,0-.33,3A4.07,4.07,0,0,0,74,79.1a3.65,3.65,0,0,0,2,1.19c1,.32,1.62.5,1.84.54a7.22,7.22,0,0,0,.74-.06h.68a5.63,5.63,0,0,1,1.53.23c.76.23,1.08.53,1,.91a8.89,8.89,0,0,0-2.78.34l1.59.79c0,.46-.65.68-1.93.68a5.87,5.87,0,0,1-1.39-.22,5.6,5.6,0,0,0-1.16-.23h-.74A13.4,13.4,0,0,1,75,85a4.28,4.28,0,0,1-2.27-1.13,4.65,4.65,0,0,0-1.64-1.08c-.23,0-.56.36-1,1.08a3.69,3.69,0,0,0-.62,1.47,3.16,3.16,0,0,1-1.25-1.47c-.15-.5-.32-1-.51-1.48-.38,0-1.08.83-2.1,2.38h-.28a24.82,24.82,0,0,1-.86-2.38,10.64,10.64,0,0,0-3.28-.57,12.12,12.12,0,0,0-2.27.34L57.36,82a12.65,12.65,0,0,1,2-1.3,6.64,6.64,0,0,1,2.95-1.14,2.41,2.41,0,0,1,.46.06,2.23,2.23,0,0,0,.45.06,3.54,3.54,0,0,0,1.27-.43c.59-.28.93-.54,1-.77a5.92,5.92,0,0,0,.15-1.76,6.27,6.27,0,0,0-1.7-4.81,9.5,9.5,0,0,0-4.88-2.05q-.91,3.24-5.1,3.24a3.72,3.72,0,0,1-2.73-1.65,5,5,0,0,1-1.36-3A4.21,4.21,0,0,1,51.63,65a4.37,4.37,0,0,1-1.42-3,3.82,3.82,0,0,1,.88-2.5,3.44,3.44,0,0,1,2.3-1.25,2.36,2.36,0,0,1,1.19-2.49A3.06,3.06,0,0,1,54,53.55a4.26,4.26,0,0,1,4.36-4.37,4.37,4.37,0,0,1,3.35,1.42Q63.32,45,68.76,45a6.67,6.67,0,0,1,5,2.27,6.8,6.8,0,0,1,.79.9c-.45,0-.23-.08.68-.25a12.34,12.34,0,0,1,2-.26,5.47,5.47,0,0,1,3.91,1.65,7.89,7.89,0,0,1,2,3.74,8.18,8.18,0,0,1,1.25.34,2.21,2.21,0,0,1,1.25,2.15,2.82,2.82,0,0,1-.46,1.08q3.63,2,3.63,5.67A7.72,7.72,0,0,1,88,65.12,2.72,2.72,0,0,1,89.52,67.62ZM66.15,70.11v-.73A3.11,3.11,0,0,0,64.88,67a4,4,0,0,0-2.58-1.07,6.08,6.08,0,0,0-2.95.73Q62.35,66.49,66.15,70.11Zm-1-7a14.07,14.07,0,0,1-1.47-2c-1.59.41-2.39.89-2.39,1.41a7.1,7.1,0,0,1,2,.26A9.06,9.06,0,0,0,65.13,63.08Zm3.46-1.76V58.83c-.91-.15-1.46-.23-1.64-.23v.85ZM76,59.74q-.67-.29-2.55-1.14v4.88Q76.08,62,76,59.74Zm3.12,6.69L77.83,64.9l-2.29,1.61a10.21,10.21,0,0,0-2,1.85A19.32,19.32,0,0,1,79.08,66.43Z"/></svg>