<svg id="Layer_1" data-name="Layer 1" xmlns="http://www.w3.org/2000/svg" viewBox="0 0 100 100"><defs><style>.cls-1{fill:#f8f6d8;}.cls-2{fill:#e49977;}.cls-3{fill:#0d0f0f;}</style></defs><path class="cls-1" d="M85.35,14.67a50,50,0,1,1-70.7,70.72"/><path class="cls-2" d="M14.65,85.39a50,50,0,1,1,70.7-70.72"/><path class="cls-3" d="M88,73.14c-2.44-2.26-4-3.49-4.85-3.68-.57-.14-1.13.2-1.67,1a2,2,0,0,1-2.27.86,15.34,15.34,0,0,1-2.33-1,5.86,5.86,0,0,0-1.51,1.76,2.24,2.24,0,0,0,.55,1.62,2.56,2.56,0,0,0,1.3,1.17,5.09,5.09,0,0,0,1.09.09,4.74,4.74,0,0,1,.93,0c.44.1.46,1,.07,2.6a37.29,37.29,0,0,1-2.79,6.89q-.09-5.86-1.66-6.24a2.72,2.72,0,0,0-1,.11,2.78,2.78,0,0,1-1.08.09c-1-.26-1.76-1.44-2.13-3.55-1.72-.15-2.76.51-3.1,1.95a2,2,0,0,0,.59,2c.56.6.82,1,.78,1.16q-.35,1.47-5.36,3.48c-1.77.72-3,1.23-3.68,1.52A14.8,14.8,0,0,0,62,82.8a7.27,7.27,0,0,0,1.53-2.56c.09-.36-.21-1-.88-1.82a2.75,2.75,0,0,1-.76-2.35A5.76,5.76,0,0,1,63.12,74a2.21,2.21,0,0,0-1.49-1.21c-1.44-.35-2.28,0-2.5.89.15-.65,0-.17-.35,1.46-.25,1.2-1.3,1.58-3.14,1.14a44.77,44.77,0,0,1-6.86-2.67q6-.06,6.41-1.91a8.26,8.26,0,0,1,.1-1.35c.12-1.15,1.16-2,3.1-2.46.08-1.74-.59-2.78-2-3.12-.22,0-.71.23-1.46.86a2.33,2.33,0,0,1-1.9.74c-.87-.2-1.76-1.41-2.69-3.62q-.63-1.64-2-4.88l2.18,1.9A7,7,0,0,0,53,61.1c.51.12,1.11-.21,1.81-1A2.25,2.25,0,0,1,57,59.26a19.29,19.29,0,0,1,2,1.17,5.24,5.24,0,0,0,1.59-2.09,2.43,2.43,0,0,0-.43-1.67A2.22,2.22,0,0,0,59,55.48a3.62,3.62,0,0,0-.88,0,3.11,3.11,0,0,1-.88,0q-1-.23-.39-2.67c.1-.43,1.11-2.81,3-7.12a9.86,9.86,0,0,0,0,3.2c.18,2,.68,3,1.52,3.23a2.65,2.65,0,0,0,.94-.12,2.66,2.66,0,0,1,1.11-.08,2.46,2.46,0,0,1,1.72,1.9l.46,1.66A2.56,2.56,0,0,0,67.64,55a2.82,2.82,0,0,0,1.23-1.77,2.06,2.06,0,0,0-.57-2.05c-.57-.58-.83-1-.77-1.19.18-.76,1.68-1.75,4.49-3a27.64,27.64,0,0,1,4.35-1.65c-2.05,1.72-3.2,3.07-3.43,4a2.42,2.42,0,0,0,.53,1.84,5.59,5.59,0,0,1,1,1.78,5.25,5.25,0,0,1-.93,3.39,4.73,4.73,0,0,0,2,1.56,1.45,1.45,0,0,0,2-1.25c0-.11.06-.47.11-1.07a3.49,3.49,0,0,1,.15-1c.27-.47,1.32-.49,3.16-.05a55.7,55.7,0,0,1,7,2.7L84,57.47c-1.55.09-2.39.4-2.52,1a5.26,5.26,0,0,0,0,1.36,5.63,5.63,0,0,1-.06,1.42c-.11.51-.55.9-1.31,1.18l-2.15.85a8.69,8.69,0,0,0,.53,1.62,1.86,1.86,0,0,0,1.31,1c.43.11.92-.18,1.46-.85a1.85,1.85,0,0,1,2-.72c1,.23,1.86,1.39,2.65,3.49Q86.57,69.54,88,73.14Zm-11.27-6a8.81,8.81,0,0,0-13.19-9.53,8.56,8.56,0,0,0-4,5.41,8.07,8.07,0,0,0,1.14,6.61,8.79,8.79,0,0,0,5.49,4,8.66,8.66,0,0,0,6.73-.94A8.25,8.25,0,0,0,76.73,67.12Zm-.82-.19a7.53,7.53,0,0,1-3.53,4.94,8.22,8.22,0,0,1-11-2.69A7.74,7.74,0,0,1,64,58.38,7.91,7.91,0,0,1,74.89,61,7.54,7.54,0,0,1,75.91,66.93Z"/><path class="cls-3" d="M51.94,38.11q-2.58,6.15-10.24,6.15a14.28,14.28,0,0,0-3.05.35c-1.64.35-2.45.84-2.45,1.46a1,1,0,0,0,.41.67,1.09,1.09,0,0,0,.7.38c-1,0-.31,0,2,.09s3.74.09,4.33.09q-5.1,3-17,2.75a8.65,8.65,0,0,1-6.73-3.45,10.84,10.84,0,0,1-2.75-7.2A9.94,9.94,0,0,1,20,32.23,9.37,9.37,0,0,1,27,29.28a10.41,10.41,0,0,1,2.48.41,10.67,10.67,0,0,0,2.08.41A11.79,11.79,0,0,0,37,28.31a25.39,25.39,0,0,0,3-1.78q-.59,6.13-4.1,8.25c-1.68,1-2.51,1.93-2.51,2.86a1.58,1.58,0,0,0,1,1.41,4,4,0,0,0,1.81.41,4,4,0,0,0,3-1.87,4.79,4.79,0,0,0,1.28-3.4A16.73,16.73,0,0,1,40.76,30a4.46,4.46,0,0,1,.85-1.73A3.63,3.63,0,0,1,42.92,27a6.69,6.69,0,0,1-.38,1.76,7,7,0,0,0-.38,1.81,2.72,2.72,0,0,0,.7,2c.71-.27,1.33-1.15,1.88-2.63a11,11,0,0,0,.82-3.28,7.38,7.38,0,0,1-4.71-2.23,6.16,6.16,0,0,1-2.26-4.56,2.91,2.91,0,0,1,.12-.82l1,1.64c.66,1,1.17,1.46,1.52,1.46s.71-.48.71-1.46a6.07,6.07,0,0,0-1-3.39,3.3,3.3,0,0,0-2.87-1.82,6.08,6.08,0,0,0-2.45.88,6.4,6.4,0,0,1-3,.88,26,26,0,0,1-3.63-1.06q5.69-.93,5.68-1.69,0-2-7.78-2.69l-2.81-.24c.15-.19,1.27-.41,3.34-.64,1.75-.19,3-.3,3.68-.3q13.94,0,17.67,13.53a2.2,2.2,0,0,0,.65-1.78,11.65,11.65,0,0,0-.94-4q-.34-.94-1.11-2.85,4.8,6.12,4.8,11.59a10.32,10.32,0,0,1-1.35,5.23,21.29,21.29,0,0,1-3.27,4.06,28.05,28.05,0,0,0-3.28,3.82,32.94,32.94,0,0,0,4.21-1.35,12.27,12.27,0,0,0,4-3A6.75,6.75,0,0,1,51.94,38.11Zm-25.52-23a1.32,1.32,0,0,1-1.17,1.35l-1.52.23c-.55.28-1.35,1.35-2.4,3.22-.12-.58-.29-1.4-.53-2.46a4.91,4.91,0,0,0-1.75.94c-.35.27-.92.68-1.7,1.23a8.63,8.63,0,0,1,2.34-4.27c1.41-1.6,2.77-2.4,4.1-2.4C25.55,13,26.42,13.67,26.42,15.11ZM36.6,20.5a2,2,0,0,1-1.08,1.67,4.08,4.08,0,0,1-2.13.67,3.12,3.12,0,0,1-2.52-1.58,6.82,6.82,0,0,0-2.75-2.52,1,1,0,0,1,.7-.29,4.07,4.07,0,0,1,1.78.82,4.6,4.6,0,0,0,1.61.82c.2,0,.52-.27,1-.82a1.91,1.91,0,0,1,1.49-.82C36,18.45,36.6,19.13,36.6,20.5Z"/></svg>