<svg id="Layer_1" data-name="Layer 1" xmlns="http://www.w3.org/2000/svg" viewBox="0 0 100 100"><defs><style>.cls-1{fill:#c1d7e9;}.cls-2{fill:#0d0f0f;}</style></defs><circle class="cls-1" cx="50" cy="50" r="50"/><path class="cls-2" d="M67.88,82.93a23.8,23.8,0,0,1-17.69,7.31q-11.79,0-18.71-8.07Q24.94,74.48,25,62.56,25,49.75,36.1,33.34A110.17,110.17,0,0,1,57.5,9.76a63.15,63.15,0,0,0-1.8,11.66,27.82,27.82,0,0,0,5,15.51q6.15,9,9.36,13.33,5,7.56,5,14.73A24.55,24.55,0,0,1,67.88,82.93Zm-.13-27.36c-1.28-2.86-2.78-4.76-4.48-5.7a5.08,5.08,0,0,1,.38,2.18,28.34,28.34,0,0,1-1.54,7.69l-1.66,5.13q0,4.48,4.48,4.48,4.74,0,4.74-6.28A18.92,18.92,0,0,0,67.75,55.57Z"/></svg>