<svg id="Layer_1" data-name="Layer 1" xmlns="http://www.w3.org/2000/svg" viewBox="0 0 100 100"><defs><style>.cls-1{fill:#e49977;}.cls-2{fill:#c1d7e9;}.cls-3{fill:#0d0f0f;}</style></defs><path class="cls-1" d="M85.32,14.64A50,50,0,1,1,14.61,85.35"/><path class="cls-2" d="M14.61,85.35A50,50,0,0,1,85.32,14.64"/><path class="cls-3" d="M88.27,74.44Q85.69,80.59,78,80.58a15,15,0,0,0-3,.35c-1.63.36-2.45.84-2.45,1.47a1,1,0,0,0,.41.67,1.09,1.09,0,0,0,.7.38c-1,0-.32,0,2,.09s3.74.09,4.33.09q-5.08,3-17,2.75a8.67,8.67,0,0,1-6.73-3.45,10.84,10.84,0,0,1-2.75-7.2,10,10,0,0,1,2.84-7.17,9.37,9.37,0,0,1,7.05-3,10.05,10.05,0,0,1,2.49.41,10.48,10.48,0,0,0,2.07.41,11.79,11.79,0,0,0,5.39-1.79,25.39,25.39,0,0,0,3-1.78q-.58,6.14-4.1,8.25c-1.67,1-2.51,1.93-2.51,2.86a1.58,1.58,0,0,0,1,1.41,4.06,4.06,0,0,0,1.82.41,4,4,0,0,0,3-1.88,4.82,4.82,0,0,0,1.29-3.39,16.22,16.22,0,0,1,.23-4.21,4.46,4.46,0,0,1,.85-1.73,3.56,3.56,0,0,1,1.32-1.26,7,7,0,0,1-.38,1.75,6.7,6.7,0,0,0-.38,1.82,2.68,2.68,0,0,0,.7,2c.7-.27,1.32-1.15,1.87-2.64A10.61,10.61,0,0,0,81.89,63a7.38,7.38,0,0,1-4.71-2.23,6.19,6.19,0,0,1-2.25-4.56,2.89,2.89,0,0,1,.11-.82c.24.35.59.9,1.06,1.64.66,1,1.17,1.46,1.52,1.46s.7-.48.7-1.46a6.06,6.06,0,0,0-1-3.39,3.31,3.31,0,0,0-2.87-1.82,5.91,5.91,0,0,0-2.46.88,6.49,6.49,0,0,1-3,.88,25.19,25.19,0,0,1-3.63-1.06c3.78-.62,5.67-1.19,5.67-1.69q0-2-7.78-2.69l-2.81-.24c.16-.19,1.27-.4,3.34-.64,1.75-.19,3-.29,3.68-.29q13.94,0,17.68,13.52a2.2,2.2,0,0,0,.64-1.78,11.65,11.65,0,0,0-.94-4q-.34-.95-1.11-2.85,4.8,6.12,4.8,11.59a10.32,10.32,0,0,1-1.35,5.23,20.9,20.9,0,0,1-3.27,4.06,28.81,28.81,0,0,0-3.28,3.82,32.38,32.38,0,0,0,4.21-1.35,12.17,12.17,0,0,0,4-3A6.52,6.52,0,0,1,88.27,74.44Zm-25.52-23a1.33,1.33,0,0,1-1.17,1.35L60.06,53c-.54.27-1.34,1.35-2.39,3.22-.12-.58-.3-1.4-.53-2.46a4.93,4.93,0,0,0-1.76.94c-.35.27-.91.68-1.7,1.23A8.58,8.58,0,0,1,56,51.68c1.4-1.6,2.77-2.4,4.09-2.4C61.88,49.28,62.75,50,62.75,51.44Zm10.19,5.39a2,2,0,0,1-1.09,1.67,4.08,4.08,0,0,1-2.13.67,3.12,3.12,0,0,1-2.52-1.58,6.76,6.76,0,0,0-2.75-2.52,1,1,0,0,1,.7-.29,4.14,4.14,0,0,1,1.79.82,4.44,4.44,0,0,0,1.61.82c.19,0,.51-.27,1-.82A1.92,1.92,0,0,1,71,54.78C72.29,54.78,72.94,55.46,72.94,56.83Z"/><path class="cls-3" d="M41.08,48.16a13.41,13.41,0,0,1-9.94,4.1,13.16,13.16,0,0,1-10.53-4.54,16.43,16.43,0,0,1-3.67-11q0-7.2,6.27-16.43A61.68,61.68,0,0,1,35.25,7a35,35,0,0,0-1,6.56,15.59,15.59,0,0,0,2.81,8.72q3.45,5,5.26,7.49a15.09,15.09,0,0,1,2.81,8.29A13.87,13.87,0,0,1,41.08,48.16ZM41,32.77a6.55,6.55,0,0,0-2.52-3.21,2.88,2.88,0,0,1,.22,1.23,15.88,15.88,0,0,1-.87,4.32L36.9,38a2.23,2.23,0,0,0,2.53,2.53q2.66,0,2.66-3.54A10.58,10.58,0,0,0,41,32.77Z"/></svg>