<svg id="Layer_1" data-name="Layer 1" xmlns="http://www.w3.org/2000/svg" viewBox="0 0 100 100"><defs><style>.cls-1{fill:#f8f6d8;}.cls-2{fill:#0d0f0f;}</style></defs><circle class="cls-1" cx="50" cy="50" r="50"/><path class="cls-2" d="M97.69,57.07q-9.84-5.55-12.62-5.55-2,0-3.15,3.09a4.42,4.42,0,0,1-4.54,3.09,32.18,32.18,0,0,1-5.68-1q-2.4,3.66-2.4,4.67c0,.92.69,2,2.07,3.28s2.53,1.89,3.48,1.89a10.63,10.63,0,0,0,2.45-.38,11.33,11.33,0,0,1,2.06-.38c1,0,1.55,1.9,1.55,5.68q0,5.43-2.52,16.66-3.28-12.87-6.94-12.87a6.43,6.43,0,0,0-2.08.76,6.31,6.31,0,0,1-2.34.75q-3.66,0-6.56-6.69-5.8.89-5.8,5.94A4.6,4.6,0,0,0,57,80c1.55,1,2.34,1.73,2.34,2.15q0,3.41-10,10.47c-3.53,2.52-6,4.29-7.32,5.3A34.19,34.19,0,0,0,45.58,92c1.35-2.78,2-4.92,2-6.44q0-1.26-2.9-3.53c-1.94-1.51-2.9-3.11-2.9-4.79A12.8,12.8,0,0,1,43.31,72a5,5,0,0,0-3.91-1.9c-3.36,0-5,1.1-5,3.28v3.41q.12,4.16-6.31,4.16-4.92,0-16.53-2.27,13.13-3.28,13.12-7.57a15.48,15.48,0,0,1-.5-3q-.51-3.9,5.55-7.06-1.14-5.8-6.06-5.81c-.5,0-1.43.89-2.78,2.65s-2.6,2.65-3.78,2.65q-3,0-7.82-6.56Q7,50.64,2.31,44.19l5.8,3A15.6,15.6,0,0,0,14.17,49q1.77,0,3.47-3.09t4.48-3.09a50.87,50.87,0,0,1,5.05,1.51c1.59-2.44,2.39-4.24,2.39-5.42a5.49,5.49,0,0,0-1.83-3.47c-1.22-1.31-2.33-2-3.34-2a8.24,8.24,0,0,0-2,.38,8.09,8.09,0,0,1-1.95.38c-1.52,0-2.27-1.89-2.27-5.68q0-1.52,2.9-17.28c-.08,1.26.46,3.61,1.64,7.06q2.14,6.32,5.05,6.31a6.05,6.05,0,0,0,2-.76,5.86,5.86,0,0,1,2.39-.75c1.94,0,3.53,1.09,4.8,3.27l1.89,3.41a5.8,5.8,0,0,0,4.42-1.89,6.45,6.45,0,0,0,1.76-4.54,4.68,4.68,0,0,0-2.33-4.23c-1.56-1-2.34-1.7-2.34-2.21q0-2.66,8.33-9,6.69-5,8.71-5.93Q52,9.37,52,12.78c0,1.18.72,2.44,2.15,3.78a12.52,12.52,0,0,1,3,3.41q1.26,2.91-.25,8c2.27,1.6,4,2.39,5.18,2.39q3.65,0,3.65-3.78c0-.25-.1-1.05-.31-2.4a7.7,7.7,0,0,1-.19-2.27q.51-1.77,6.94-1.77,4,0,16.78,2.28l-8.33,2.27c-3.36,1-5,2.14-5,3.4a12.36,12.36,0,0,0,.64,3,12.63,12.63,0,0,1,.63,3.16c0,1.17-.76,2.27-2.27,3.27l-4.29,3a19.18,19.18,0,0,0,2,3.28,4.19,4.19,0,0,0,3.4,1.52c1,0,1.94-.89,2.78-2.65a4.2,4.2,0,0,1,4-2.65q3.4,0,7.7,6.31Q92.64,49.88,97.69,57.07Zm-28-7.32a19.15,19.15,0,0,0-5.93-14,19.11,19.11,0,0,0-14-5.93,19.38,19.38,0,0,0-14.13,5.86,19.5,19.5,0,0,0-6.06,14.07,18.25,18.25,0,0,0,6,13.94,19.9,19.9,0,0,0,14.2,5.87,19.64,19.64,0,0,0,14.31-5.62A18.57,18.57,0,0,0,69.68,49.75Zm-1.89,0a17,17,0,0,1-5.17,12.74,17.68,17.68,0,0,1-12.87,5.05A17.56,17.56,0,0,1,37,62.37a17,17,0,0,1-5.3-12.62A16.89,16.89,0,0,1,37.07,37.2a17.89,17.89,0,0,1,25.36.06A17,17,0,0,1,67.79,49.75Z"/></svg>