<svg id="Layer_1" data-name="Layer 1" xmlns="http://www.w3.org/2000/svg" viewBox="0 0 100 100"><defs><style>.cls-1{fill:#bab1ab;}.cls-2{fill:#f8f6d8;}.cls-3{fill:#0d0f0f;}</style></defs><path class="cls-1" d="M85.35,14.64a50,50,0,1,1-70.7,70.71"/><path class="cls-2" d="M14.65,85.35a50,50,0,0,1,70.7-70.71"/><path class="cls-3" d="M89.62,66q0,4-3,5.52a27.9,27.9,0,0,1-5.4,1.17c-2,.33-3,1.09-3,2.27v5c0,.21.07.85.19,1.91l.18,2a16.69,16.69,0,0,1-.43,3l-2.7.56a11.85,11.85,0,0,1-.49-2.52,4.33,4.33,0,0,1,.15-.92,4.51,4.51,0,0,0,.16-.92,10.84,10.84,0,0,0-.77-2.4h-1a1.26,1.26,0,0,0-.13.8,5.71,5.71,0,0,1,.19,1.78c-.7.49-1.66,1.15-2.88,2-.29-.08-.39-.12-.31-.12V80.66c-.08-.2-.29-.28-.62-.24h-.73l-.74,5.77a18.07,18.07,0,0,1-2.09,0c-.28-1.35-.8-3.36-1.53-6h-.49c-.45,1.43-.7,2.21-.74,2.33a5.81,5.81,0,0,0,.15,1,5,5,0,0,1,.16,1c0,.12,0,.43-.13.92l-.18,1.47a.45.45,0,0,1-.31.12A2.72,2.72,0,0,1,60.83,86a4,4,0,0,1-.5-2.58l.5-7.36a1.43,1.43,0,0,1,.12-.49,1.49,1.49,0,0,0,.12-.43,5,5,0,0,0-1-2c-.13,0-.76-.18-1.91-.43-.69-.16-2.06-.45-4.11-.86-2.82-.53-4.24-2.8-4.24-6.81a18.43,18.43,0,0,1,7.37-14.92c.2,1.1.55,2.58,1,4.42l2.39.55c.25.08,1.49.53,3.74,1.35a37.42,37.42,0,0,1-4.48-3.37,6.41,6.41,0,0,1-1-4.11c0-.46.78-1,2.33-1.6a13,13,0,0,1,3.13-1,42,42,0,0,1,5.1-.43q7.68,0,12.4,3.93a18.92,18.92,0,0,1-5.28,3.8,10.84,10.84,0,0,0,4.3-1.16c1.88-.82,2.68-1.23,2.39-1.23.33,0,1,.65,2,2a29.29,29.29,0,0,1,1.78,2.64,23.17,23.17,0,0,1,2.64,7.55c0,1,0,1.62.06,2V66ZM66.1,67.1a7.12,7.12,0,0,0-2.3-5,6.85,6.85,0,0,0-4.94-2.36,5.37,5.37,0,0,0-4.11,2A6.4,6.4,0,0,0,53,66.1a2.6,2.6,0,0,0,2,2.72,15.58,15.58,0,0,0,3.62.43H62C64.73,69.28,66.1,68.57,66.1,67.1Zm6.7,7.61v-1.9c-.29-.53-.58-1.09-.86-1.66a33.88,33.88,0,0,0-1.35-3.44l-.68,7.18c0,.58-.12.86-.37.86a.53.53,0,0,1-.37-.12q-.42-6.51-.42-5.64V67.84a.37.37,0,0,0-.31-.19q-2.09,2.16-2.09,6.94c0,1.76.17,2.84.49,3.25A5.1,5.1,0,0,0,68,77.41a4.55,4.55,0,0,1,1.41-.12,7.24,7.24,0,0,1,2.82.74C72.59,78,72.8,76.92,72.8,74.71Zm13.87-8.56a6.23,6.23,0,0,0-1.84-4.41,5.68,5.68,0,0,0-4.23-2,6.61,6.61,0,0,0-4.82,2.36,7.16,7.16,0,0,0-2.25,4.95,1.87,1.87,0,0,0,2.09,2.14h7.06C85.34,69.2,86.67,68.18,86.67,66.15Z"/><path class="cls-3" d="M54.67,38.26Q51,34.87,49.82,34.58c-.58-.14-1.14.2-1.67,1a2,2,0,0,1-2.27.85,13.28,13.28,0,0,1-2.33-1A6,6,0,0,0,42,37.19a2.29,2.29,0,0,0,.55,1.62A2.57,2.57,0,0,0,43.89,40a5,5,0,0,0,1.09.09,4.68,4.68,0,0,1,.92,0c.45.1.47,1,.08,2.6a37.29,37.29,0,0,1-2.79,6.89q-.09-5.86-1.66-6.24a2.71,2.71,0,0,0-1,.11,2.79,2.79,0,0,1-1.08.09c-1-.25-1.76-1.44-2.13-3.55-1.72-.15-2.76.51-3.1,1.95a2,2,0,0,0,.58,2c.57.6.83,1,.79,1.16q-.34,1.47-5.36,3.48c-1.77.72-3,1.23-3.68,1.52a15.88,15.88,0,0,0,2.12-2.18,7.43,7.43,0,0,0,1.53-2.56c.09-.36-.21-1-.88-1.81a2.78,2.78,0,0,1-.76-2.36,5.76,5.76,0,0,1,1.2-2.12,2.21,2.21,0,0,0-1.49-1.21c-1.44-.35-2.28-.06-2.5.89.15-.65,0-.17-.35,1.46-.25,1.2-1.3,1.58-3.14,1.14a44.37,44.37,0,0,1-6.86-2.67q6-.06,6.41-1.91A8.48,8.48,0,0,1,22,35.42c.13-1.15,1.16-2,3.11-2.46.08-1.74-.59-2.78-2-3.12-.22-.05-.71.23-1.46.85a2.31,2.31,0,0,1-1.9.75c-.87-.2-1.76-1.41-2.69-3.62q-.63-1.63-2-4.88l2.18,1.89a6.93,6.93,0,0,0,2.42,1.39c.51.12,1.11-.21,1.81-1a2.25,2.25,0,0,1,2.24-.86,19.29,19.29,0,0,1,2,1.17,5.24,5.24,0,0,0,1.59-2.09,2.46,2.46,0,0,0-.43-1.68,2.22,2.22,0,0,0-1.24-1.18,3.5,3.5,0,0,0-.87,0,3.11,3.11,0,0,1-.88,0q-1-.22-.39-2.67c.1-.43,1.11-2.81,3-7.12a9.86,9.86,0,0,0,0,3.2c.18,2,.68,3,1.52,3.23a2.92,2.92,0,0,0,.94-.12A2.66,2.66,0,0,1,30,17a2.46,2.46,0,0,1,1.72,1.9l.46,1.66a2.56,2.56,0,0,0,2.09-.36,2.82,2.82,0,0,0,1.23-1.77A2.06,2.06,0,0,0,35,16.34c-.57-.58-.83-1-.78-1.19q.27-1.14,4.5-3A26.6,26.6,0,0,1,43,10.51q-3.09,2.58-3.43,4.05a2.42,2.42,0,0,0,.53,1.84,5.68,5.68,0,0,1,1,1.77,5.23,5.23,0,0,1-.93,3.39,4.78,4.78,0,0,0,2,1.57,1.46,1.46,0,0,0,2-1.25c0-.11.06-.47.11-1.06a3.52,3.52,0,0,1,.15-1c.27-.47,1.32-.49,3.16-.05a55.7,55.7,0,0,1,7,2.7l-3.81.12c-1.55.09-2.39.4-2.52.95a5.26,5.26,0,0,0,0,1.36,5.63,5.63,0,0,1-.06,1.42c-.12.51-.55.89-1.31,1.17l-2.15.86A8.69,8.69,0,0,0,45.14,30a1.86,1.86,0,0,0,1.31,1c.43.1.92-.18,1.46-.85a1.87,1.87,0,0,1,2-.73c1,.24,1.86,1.4,2.65,3.5C53,34.07,53.71,35.86,54.67,38.26Zm-11.28-6a8.43,8.43,0,0,0-1.11-6.62,8.44,8.44,0,0,0-5.4-4,8.54,8.54,0,0,0-6.67,1.06,8.63,8.63,0,0,0-4.05,5.42,8,8,0,0,0,1.15,6.6,8.77,8.77,0,0,0,5.49,4,8.67,8.67,0,0,0,6.72-.94A8.19,8.19,0,0,0,43.39,32.24Zm-.81-.19A7.53,7.53,0,0,1,39.05,37a7.82,7.82,0,0,1-6,.84,7.76,7.76,0,0,1-4.94-3.53,7.73,7.73,0,0,1,2.62-10.8,7.91,7.91,0,0,1,10.88,2.63A7.54,7.54,0,0,1,42.58,32.05Z"/></svg>