<svg id="Layer_1" data-name="Layer 1" xmlns="http://www.w3.org/2000/svg" viewBox="0 0 100 100"><defs><style>.cls-1{fill:#c1d7e9;}.cls-2{fill:#f8f6d8;}.cls-3{fill:#0d0f0f;}</style></defs><path class="cls-1" d="M85.35,14.74a50,50,0,1,1-70.7,70.71"/><path class="cls-2" d="M14.65,85.45a50,50,0,0,1,70.7-70.71"/><path class="cls-3" d="M76.72,83.78a13.42,13.42,0,0,1-9.94,4.1,13.14,13.14,0,0,1-10.53-4.54,16.41,16.41,0,0,1-3.68-11q0-7.21,6.28-16.44a61.9,61.9,0,0,1,12-13.26,35.82,35.82,0,0,0-1,6.56,15.61,15.61,0,0,0,2.82,8.72q3.45,5,5.26,7.5a15.06,15.06,0,0,1,2.81,8.28A13.87,13.87,0,0,1,76.72,83.78Zm-.07-15.39a6.55,6.55,0,0,0-2.52-3.21,2.9,2.9,0,0,1,.21,1.23,15.78,15.78,0,0,1-.86,4.32l-.94,2.88a2.24,2.24,0,0,0,2.53,2.53q2.66,0,2.66-3.53A10.58,10.58,0,0,0,76.65,68.39Z"/><path class="cls-3" d="M54.67,38.36Q51,35,49.82,34.68c-.58-.14-1.14.2-1.67,1a2,2,0,0,1-2.27.86,14.51,14.51,0,0,1-2.33-1A6,6,0,0,0,42,37.29a2.28,2.28,0,0,0,.55,1.62,2.57,2.57,0,0,0,1.31,1.17,5,5,0,0,0,1.09.09,4.68,4.68,0,0,1,.92,0c.45.1.47,1,.08,2.6a37.29,37.29,0,0,1-2.79,6.89q-.09-5.87-1.66-6.24a3,3,0,0,0-1,.11,2.79,2.79,0,0,1-1.08.09c-1-.25-1.76-1.44-2.13-3.55-1.72-.14-2.76.51-3.1,2a2,2,0,0,0,.58,2c.57.6.83,1,.79,1.16q-.34,1.47-5.36,3.48c-1.77.72-3,1.23-3.68,1.52A15.88,15.88,0,0,0,28.7,48a7.43,7.43,0,0,0,1.53-2.56c.09-.36-.21-1-.88-1.82a2.75,2.75,0,0,1-.76-2.35,5.76,5.76,0,0,1,1.2-2.12A2.25,2.25,0,0,0,28.3,38c-1.44-.34-2.28,0-2.5.9.15-.65,0-.17-.35,1.46-.25,1.2-1.3,1.58-3.14,1.14a44.37,44.37,0,0,1-6.86-2.67q6-.06,6.41-1.91A8.48,8.48,0,0,1,22,35.52c.13-1.15,1.16-2,3.11-2.46.08-1.74-.59-2.78-2-3.12-.22-.05-.71.23-1.46.86a2.33,2.33,0,0,1-1.9.74c-.87-.2-1.76-1.41-2.69-3.62q-.63-1.64-2-4.88l2.18,1.9a7,7,0,0,0,2.42,1.38c.51.12,1.11-.21,1.81-1a2.25,2.25,0,0,1,2.24-.86,19.29,19.29,0,0,1,2,1.17,5.24,5.24,0,0,0,1.59-2.09,2.43,2.43,0,0,0-.43-1.67,2.21,2.21,0,0,0-1.24-1.19,3.5,3.5,0,0,0-.87,0,3.11,3.11,0,0,1-.88,0q-1-.23-.39-2.67c.1-.43,1.11-2.81,3-7.12a9.86,9.86,0,0,0,0,3.2c.18,2,.68,3,1.52,3.23a2.65,2.65,0,0,0,.94-.12A2.66,2.66,0,0,1,30,17.06,2.46,2.46,0,0,1,31.76,19l.46,1.66a2.56,2.56,0,0,0,2.09-.36,2.82,2.82,0,0,0,1.23-1.77,2.06,2.06,0,0,0-.57-2c-.57-.58-.83-1-.78-1.19.18-.76,1.68-1.75,4.5-3A27.64,27.64,0,0,1,43,10.61q-3.09,2.58-3.43,4.05a2.42,2.42,0,0,0,.53,1.84,5.59,5.59,0,0,1,1,1.78,5.21,5.21,0,0,1-.93,3.38,4.78,4.78,0,0,0,2,1.57,1.46,1.46,0,0,0,2-1.25c0-.11.06-.47.11-1.07a3.49,3.49,0,0,1,.15-1c.27-.47,1.32-.49,3.16-.05a55.7,55.7,0,0,1,7,2.7l-3.81.12c-1.55.09-2.39.4-2.52.95a5.26,5.26,0,0,0,0,1.36,5.63,5.63,0,0,1-.06,1.42c-.12.51-.55.9-1.31,1.18l-2.15.85a8.69,8.69,0,0,0,.53,1.62,1.86,1.86,0,0,0,1.31,1c.43.11.92-.18,1.46-.85a1.88,1.88,0,0,1,2-.73c1,.24,1.86,1.4,2.65,3.5C53,34.17,53.71,36,54.67,38.36Zm-11.28-6a8.43,8.43,0,0,0-1.11-6.62,8.49,8.49,0,0,0-5.4-4,9,9,0,0,0-10.72,6.49,8,8,0,0,0,1.15,6.6,8.77,8.77,0,0,0,5.49,4,8.63,8.63,0,0,0,6.72-.94A8.19,8.19,0,0,0,43.39,32.34Zm-.81-.19a7.53,7.53,0,0,1-3.53,4.94,7.82,7.82,0,0,1-6,.84,7.76,7.76,0,0,1-4.94-3.53,7.73,7.73,0,0,1,2.62-10.8,7.91,7.91,0,0,1,10.88,2.63A7.54,7.54,0,0,1,42.58,32.15Z"/></svg>