<svg id="Layer_1" data-name="Layer 1" xmlns="http://www.w3.org/2000/svg" viewBox="0 0 100 100"><defs><style>.cls-1{fill:#cac5c0;}.cls-2{fill:#0d0f0f;}</style></defs><path class="cls-1" d="M100,50A50,50,0,1,1,50,0,50,50,0,0,1,100,50Z"/><path class="cls-2" d="M55.33,82V78.7c4.7-.52,7.06-1.88,7.06-4.08a7.64,7.64,0,0,0-1.88-4.74l-13-16L37.23,66c-2.57,3-3.87,5.43-3.87,7.35q0,4.47,7.07,5.39V82h-25V78.71a19.54,19.54,0,0,0,8.1-3.41,53.38,53.38,0,0,0,6.29-6.44L45.22,50.94,27.35,29.28A31.76,31.76,0,0,0,22,23.77a15.39,15.39,0,0,0-7.2-2.36V18H44.29v3.28c-4.46.88-6.68,2.24-6.68,4.08a6.72,6.72,0,0,0,1.79,4.07L51.22,43.75l9.51-11.69q2.57-3.15,2.57-5.52c0-2.63-2.11-4.34-6.31-5.13V18H80.51v3.29a22.9,22.9,0,0,0-4.23,1.19q-3.86,1.85-11.8,10.92-1.28,1.45-10.79,13.28l19,23.37q6.17,7.62,12.58,8.66V82Z"/></svg>