<svg id="Layer_1" data-name="Layer 1" xmlns="http://www.w3.org/2000/svg" viewBox="0 0 100 100"><defs><style>.cls-1{fill:#c9c4be;}.cls-2{fill:#0d0f0f;}</style></defs><path class="cls-1" d="M100,50A50,50,0,1,1,50,0,50,50,0,0,1,100,50Z"/><path class="cls-2" d="M54.91,65.69q0,6,2,8.42t6.64,2.43l.75-.1V80H35.46V76.45h.94c3.11.06,5.33-.72,6.64-2.34s2-4.39,2-8.32V53.26L26.67,26.43c-.74-1-1.4-1.87-2-2.62A11.68,11.68,0,0,0,23.12,22a7.46,7.46,0,0,0-2.57-1.45,21.81,21.81,0,0,0-3.51-.7V16.23H45v3.56A17,17,0,0,0,39.3,21a3,3,0,0,0-1.5,2.94,5.19,5.19,0,0,0,.37,1.87,12.43,12.43,0,0,0,1,2L53.41,48.3,63.79,33.06a19.22,19.22,0,0,0,2.15-3.55,10.6,10.6,0,0,0,.84-2.8V26a5.46,5.46,0,0,0-1.58-4.3q-1.59-1.41-5.52-1.78V16.23H82.77v3.56a11.59,11.59,0,0,0-2,.51,8,8,0,0,0-1.78.89,12.21,12.21,0,0,0-3.09,2.66A59.51,59.51,0,0,0,72,29L54.91,53.26V65.7h0Z"/></svg>